<?xml version="1.0" encoding="UTF-8" standalone="no"?>
<!DOCTYPE svg PUBLIC "-//W3C//DTD SVG 1.1//EN"
 "http://www.w3.org/Graphics/SVG/1.1/DTD/svg11.dtd">
<!-- Generated by graphviz version 2.38.0 (20140413.2041)
 -->
<!-- Title: spider::Layout Pages: 1 -->
<!--zoomable 690 -->
<svg id="main" version="1.1" xmlns="http://www.w3.org/2000/svg" xmlns:xlink="http://www.w3.org/1999/xlink" xml:space="preserve" onload="init(evt)">
<style type="text/css"><![CDATA[
.edge:hover path { stroke: red; }
.edge:hover polygon { stroke: red; fill: red; }
]]></style>
<script type="text/javascript"><![CDATA[
var edges = document.getElementsByTagName('g');
if (edges && edges.length) {
  for (var i=0;i<edges.length;i++) {
    if (edges[i].id.substr(0,4)=='edge') {
      edges[i].setAttribute('class','edge');
    }
  }
}
]]></script>
        <defs>
                <circle id="rim" cx="0" cy="0" r="7"/>
                <circle id="rim2" cx="0" cy="0" r="3.5"/>
                <g id="zoomPlus">
                        <use xlink:href="#rim" fill="#404040">
                                <set attributeName="fill" to="#808080" begin="zoomplus.mouseover" end="zoomplus.mouseout"/>
                        </use>
                        <path d="M-4,0h8M0,-4v8" fill="none" stroke="white" stroke-width="1.5" pointer-events="none"/>
                </g>
                <g id="zoomMin">
                        <use xlink:href="#rim" fill="#404040">
                                <set attributeName="fill" to="#808080" begin="zoomminus.mouseover" end="zoomminus.mouseout"/>
                        </use>
                        <path d="M-4,0h8" fill="none" stroke="white" stroke-width="1.5" pointer-events="none"/>
                </g>
                <g id="dirArrow">
                        <path fill="none" stroke="white" stroke-width="1.5" d="M0,-3.0v7 M-2.5,-0.5L0,-3.0L2.5,-0.5"/>
                </g>
               <g id="resetDef">
                       <use xlink:href="#rim2" fill="#404040">
                               <set attributeName="fill" to="#808080" begin="reset.mouseover" end="reset.mouseout"/>
                       </use>
               </g>
        </defs>

<script type="text/javascript">
var viewWidth = 419;
var viewHeight = 690;
var sectionId = 'dynsection-1';
</script>
<script xlink:href="svgpan.js"/>
<svg id="graph" class="graph">
<g id="viewport">
<title>spider::Layout</title>
<polygon fill="white" stroke="none" points="-4,4 -4,-686 414.5,-686 414.5,4 -4,4"/>
<!-- Node1 -->
<g id="node1" class="node"><title>Node1</title>
<polygon fill="#bfbfbf" stroke="black" points="132.5,-0.5 132.5,-167.5 242.5,-167.5 242.5,-0.5 132.5,-0.5"/>
<text text-anchor="middle" x="187.5" y="-155.5" font-family="Helvetica,sans-Serif" font-size="10.00">spider::Layout</text>
<polyline fill="none" stroke="black" points="132.5,-148.5 242.5,-148.5 "/>
<text text-anchor="start" x="140.5" y="-136.5" font-family="Helvetica,sans-Serif" font-size="10.00"># hasEdgeData</text>
<polyline fill="none" stroke="black" points="132.5,-129.5 242.5,-129.5 "/>
<text text-anchor="start" x="140.5" y="-117.5" font-family="Helvetica,sans-Serif" font-size="10.00">+ Layout()</text>
<text text-anchor="start" x="140.5" y="-106.5" font-family="Helvetica,sans-Serif" font-size="10.00">+ ~Layout()</text>
<text text-anchor="start" x="140.5" y="-95.5" font-family="Helvetica,sans-Serif" font-size="10.00">+ generate()</text>
<text text-anchor="start" x="140.5" y="-84.5" font-family="Helvetica,sans-Serif" font-size="10.00">+ getVertex()</text>
<text text-anchor="start" x="140.5" y="-73.5" font-family="Helvetica,sans-Serif" font-size="10.00">+ getEdge()</text>
<text text-anchor="start" x="140.5" y="-62.5" font-family="Helvetica,sans-Serif" font-size="10.00">+ getGraph()</text>
<text text-anchor="start" x="140.5" y="-51.5" font-family="Helvetica,sans-Serif" font-size="10.00">+ getGraphValue()</text>
<text text-anchor="start" x="140.5" y="-40.5" font-family="Helvetica,sans-Serif" font-size="10.00">+ getVertexAttribute()</text>
<text text-anchor="start" x="140.5" y="-29.5" font-family="Helvetica,sans-Serif" font-size="10.00">+ getEdgeAttribute()</text>
<text text-anchor="start" x="140.5" y="-18.5" font-family="Helvetica,sans-Serif" font-size="10.00">+ setVertexAttribute()</text>
<text text-anchor="start" x="140.5" y="-7.5" font-family="Helvetica,sans-Serif" font-size="10.00">+ setEdgeAttribute()</text>
</g>
<!-- Node2 -->
<g id="node2" class="node"><title>Node2</title>
<g id="a_node2"><a xlink:href="classgraph_1_1_vertex_attribute.html" target="_top" xlink:title="{graph::VertexAttribute\l\&lt; spider::GraphValue::\lGraph, spider::vec2 \&gt;\n||+ VertexAttribute()\l+ VertexAttribute()\l+ value()\l+ isKnown()\l+ count()\l+ getData()\l}">
<polygon fill="white" stroke="black" points="0,-221 0,-355 115,-355 115,-221 0,-221"/>
<text text-anchor="start" x="8" y="-343" font-family="Helvetica,sans-Serif" font-size="10.00">graph::VertexAttribute</text>
<text text-anchor="start" x="8" y="-332" font-family="Helvetica,sans-Serif" font-size="10.00">&lt; spider::GraphValue::</text>
<text text-anchor="middle" x="57.5" y="-321" font-family="Helvetica,sans-Serif" font-size="10.00">Graph, spider::vec2 &gt;</text>
<polyline fill="none" stroke="black" points="0,-314 115,-314 "/>
<text text-anchor="middle" x="57.5" y="-302" font-family="Helvetica,sans-Serif" font-size="10.00"> </text>
<polyline fill="none" stroke="black" points="0,-295 115,-295 "/>
<text text-anchor="start" x="8" y="-283" font-family="Helvetica,sans-Serif" font-size="10.00">+ VertexAttribute()</text>
<text text-anchor="start" x="8" y="-272" font-family="Helvetica,sans-Serif" font-size="10.00">+ VertexAttribute()</text>
<text text-anchor="start" x="8" y="-261" font-family="Helvetica,sans-Serif" font-size="10.00">+ value()</text>
<text text-anchor="start" x="8" y="-250" font-family="Helvetica,sans-Serif" font-size="10.00">+ isKnown()</text>
<text text-anchor="start" x="8" y="-239" font-family="Helvetica,sans-Serif" font-size="10.00">+ count()</text>
<text text-anchor="start" x="8" y="-228" font-family="Helvetica,sans-Serif" font-size="10.00">+ getData()</text>
</a>
</g>
</g>
<!-- Node2&#45;&gt;Node1 -->
<g id="edge1" class="edge"><title>Node2&#45;&gt;Node1</title>
<path fill="none" stroke="#404040" d="M100.067,-220.858C108.886,-207.154 118.333,-192.476 127.638,-178.016"/>
<polygon fill="none" stroke="#404040" points="127.884,-177.634 127.767,-170.424 134.378,-167.544 134.494,-174.754 127.884,-177.634"/>
<text text-anchor="middle" x="140" y="-189" font-family="Helvetica,sans-Serif" font-size="10.00"> #points</text>
</g>
<!-- Node3 -->
<g id="node3" class="node"><title>Node3</title>
<g id="a_node3"><a xlink:href="classgraph_1_1_edge_attribute.html" target="_top" xlink:title="{graph::EdgeAttribute\l\&lt; spider::GraphValue\l::Graph, Curve \&gt;\n||+ EdgeAttribute()\l+ value()\l}">
<polygon fill="white" stroke="black" points="133,-243 133,-333 242,-333 242,-243 133,-243"/>
<text text-anchor="start" x="141" y="-321" font-family="Helvetica,sans-Serif" font-size="10.00">graph::EdgeAttribute</text>
<text text-anchor="start" x="141" y="-310" font-family="Helvetica,sans-Serif" font-size="10.00">&lt; spider::GraphValue</text>
<text text-anchor="middle" x="187.5" y="-299" font-family="Helvetica,sans-Serif" font-size="10.00">::Graph, Curve &gt;</text>
<polyline fill="none" stroke="black" points="133,-292 242,-292 "/>
<text text-anchor="middle" x="187.5" y="-280" font-family="Helvetica,sans-Serif" font-size="10.00"> </text>
<polyline fill="none" stroke="black" points="133,-273 242,-273 "/>
<text text-anchor="start" x="141" y="-261" font-family="Helvetica,sans-Serif" font-size="10.00">+ EdgeAttribute()</text>
<text text-anchor="start" x="141" y="-250" font-family="Helvetica,sans-Serif" font-size="10.00">+ value()</text>
</a>
</g>
</g>
<!-- Node3&#45;&gt;Node1 -->
<g id="edge2" class="edge"><title>Node3&#45;&gt;Node1</title>
<path fill="none" stroke="#404040" d="M187.5,-242.67C187.5,-224.15 187.5,-201.871 187.5,-179.972"/>
<polygon fill="none" stroke="#404040" points="187.5,-179.87 183.5,-173.87 187.5,-167.87 191.5,-173.87 187.5,-179.87"/>
<text text-anchor="middle" x="206.5" y="-189" font-family="Helvetica,sans-Serif" font-size="10.00"> #curves</text>
</g>
<!-- Node4 -->
<g id="node4" class="node"><title>Node4</title>
<g id="a_node4"><a xlink:href="classspider_1_1_graph_value.html" target="_top" xlink:title="wrapper class for Graph (graph::AdjacencyList&lt;int,int&gt;) ">
<polygon fill="white" stroke="black" points="260,-215.5 260,-360.5 373,-360.5 373,-215.5 260,-215.5"/>
<text text-anchor="middle" x="316.5" y="-348.5" font-family="Helvetica,sans-Serif" font-size="10.00">spider::GraphValue</text>
<polyline fill="none" stroke="black" points="260,-341.5 373,-341.5 "/>
<text text-anchor="middle" x="316.5" y="-329.5" font-family="Helvetica,sans-Serif" font-size="10.00"> </text>
<polyline fill="none" stroke="black" points="260,-322.5 373,-322.5 "/>
<text text-anchor="start" x="268" y="-310.5" font-family="Helvetica,sans-Serif" font-size="10.00">+ GraphValue()</text>
<text text-anchor="start" x="268" y="-299.5" font-family="Helvetica,sans-Serif" font-size="10.00">+ GraphValue()</text>
<text text-anchor="start" x="268" y="-288.5" font-family="Helvetica,sans-Serif" font-size="10.00">+ show()</text>
<text text-anchor="start" x="268" y="-277.5" font-family="Helvetica,sans-Serif" font-size="10.00">+ setVertexAttribute()</text>
<text text-anchor="start" x="268" y="-266.5" font-family="Helvetica,sans-Serif" font-size="10.00">+ setVertexAttribute()</text>
<text text-anchor="start" x="268" y="-255.5" font-family="Helvetica,sans-Serif" font-size="10.00">+ getVertexAttribute()</text>
<text text-anchor="start" x="268" y="-244.5" font-family="Helvetica,sans-Serif" font-size="10.00">+ getGraphAttribs()</text>
<text text-anchor="start" x="268" y="-233.5" font-family="Helvetica,sans-Serif" font-size="10.00">+ hasVertexAttribute()</text>
<text text-anchor="start" x="268" y="-222.5" font-family="Helvetica,sans-Serif" font-size="10.00">+ hasAttribute()</text>
</a>
</g>
</g>
<!-- Node4&#45;&gt;Node1 -->
<g id="edge3" class="edge"><title>Node4&#45;&gt;Node1</title>
<path fill="none" stroke="#404040" d="M270.838,-215.498C263.137,-203.439 255.043,-190.766 247.052,-178.251"/>
<polygon fill="none" stroke="#404040" points="246.832,-177.908 240.232,-175.004 240.373,-167.794 246.974,-170.698 246.832,-177.908"/>
<text text-anchor="middle" x="262.5" y="-189" font-family="Helvetica,sans-Serif" font-size="10.00"> #g</text>
</g>
<!-- Node5 -->
<g id="node5" class="node"><title>Node5</title>
<g id="a_node5"><a xlink:href="classspider_1_1_value.html" target="_top" xlink:title="Value contains the different datatypes that will be supported by the language. It maps the names of t...">
<polygon fill="white" stroke="black" points="174.5,-436 174.5,-559 284.5,-559 284.5,-436 174.5,-436"/>
<text text-anchor="middle" x="229.5" y="-547" font-family="Helvetica,sans-Serif" font-size="10.00">spider::Value</text>
<polyline fill="none" stroke="black" points="174.5,-540 284.5,-540 "/>
<text text-anchor="start" x="182.5" y="-528" font-family="Helvetica,sans-Serif" font-size="10.00">+ type</text>
<polyline fill="none" stroke="black" points="174.5,-521 284.5,-521 "/>
<text text-anchor="start" x="182.5" y="-509" font-family="Helvetica,sans-Serif" font-size="10.00">+ Value()</text>
<text text-anchor="start" x="182.5" y="-498" font-family="Helvetica,sans-Serif" font-size="10.00">+ ~Value()</text>
<text text-anchor="start" x="182.5" y="-487" font-family="Helvetica,sans-Serif" font-size="10.00">+ show()</text>
<text text-anchor="start" x="182.5" y="-476" font-family="Helvetica,sans-Serif" font-size="10.00">+ read()</text>
<text text-anchor="start" x="182.5" y="-465" font-family="Helvetica,sans-Serif" font-size="10.00">+ changeCallback()</text>
<text text-anchor="start" x="182.5" y="-454" font-family="Helvetica,sans-Serif" font-size="10.00">+ NameToTypeMap()</text>
<text text-anchor="start" x="182.5" y="-443" font-family="Helvetica,sans-Serif" font-size="10.00">+ TypeToNameMap()</text>
</a>
</g>
</g>
<!-- Node5&#45;&gt;Node4 -->
<g id="edge4" class="edge"><title>Node5&#45;&gt;Node4</title>
<path fill="none" stroke="midnightblue" d="M258.789,-426.644C267.698,-405.395 277.501,-382.015 286.459,-360.649"/>
<polygon fill="none" stroke="midnightblue" points="255.537,-425.349 254.898,-435.925 261.992,-428.056 255.537,-425.349"/>
</g>
<!-- Node6 -->
<g id="node6" class="node"><title>Node6</title>
<polygon fill="white" stroke="#bfbfbf" points="203,-624.5 203,-681.5 256,-681.5 256,-624.5 203,-624.5"/>
<text text-anchor="middle" x="229.5" y="-669.5" font-family="Helvetica,sans-Serif" font-size="10.00">QObject</text>
<polyline fill="none" stroke="#bfbfbf" points="203,-662.5 256,-662.5 "/>
<text text-anchor="middle" x="229.5" y="-650.5" font-family="Helvetica,sans-Serif" font-size="10.00"> </text>
<polyline fill="none" stroke="#bfbfbf" points="203,-643.5 256,-643.5 "/>
<text text-anchor="middle" x="229.5" y="-631.5" font-family="Helvetica,sans-Serif" font-size="10.00"> </text>
</g>
<!-- Node6&#45;&gt;Node5 -->
<g id="edge5" class="edge"><title>Node6&#45;&gt;Node5</title>
<path fill="none" stroke="midnightblue" d="M229.5,-613.863C229.5,-597.35 229.5,-577.613 229.5,-559.172"/>
<polygon fill="none" stroke="midnightblue" points="226,-614.202 229.5,-624.202 233,-614.202 226,-614.202"/>
</g>
<!-- Node7 -->
<g id="node7" class="node"><title>Node7</title>
<g id="a_node7"><a xlink:href="classgraph_1_1_adjacency_list.html" target="_top" xlink:title="class to store adjacency list of a graph ">
<polygon fill="white" stroke="black" points="302.5,-408.5 302.5,-586.5 410.5,-586.5 410.5,-408.5 302.5,-408.5"/>
<text text-anchor="start" x="310.5" y="-574.5" font-family="Helvetica,sans-Serif" font-size="10.00">graph::AdjacencyList</text>
<text text-anchor="middle" x="356.5" y="-563.5" font-family="Helvetica,sans-Serif" font-size="10.00">&lt; VT, ET &gt;</text>
<polyline fill="none" stroke="black" points="302.5,-556.5 410.5,-556.5 "/>
<text text-anchor="middle" x="356.5" y="-544.5" font-family="Helvetica,sans-Serif" font-size="10.00"> </text>
<polyline fill="none" stroke="black" points="302.5,-537.5 410.5,-537.5 "/>
<text text-anchor="start" x="310.5" y="-525.5" font-family="Helvetica,sans-Serif" font-size="10.00">+ AdjacencyList()</text>
<text text-anchor="start" x="310.5" y="-514.5" font-family="Helvetica,sans-Serif" font-size="10.00">+ AdjacencyList()</text>
<text text-anchor="start" x="310.5" y="-503.5" font-family="Helvetica,sans-Serif" font-size="10.00">+ operator=()</text>
<text text-anchor="start" x="310.5" y="-492.5" font-family="Helvetica,sans-Serif" font-size="10.00">+ ~AdjacencyList()</text>
<text text-anchor="start" x="310.5" y="-481.5" font-family="Helvetica,sans-Serif" font-size="10.00">+ insertVertex()</text>
<text text-anchor="start" x="310.5" y="-470.5" font-family="Helvetica,sans-Serif" font-size="10.00">+ removeVertex()</text>
<text text-anchor="start" x="310.5" y="-459.5" font-family="Helvetica,sans-Serif" font-size="10.00">+ insertEdge()</text>
<text text-anchor="start" x="310.5" y="-448.5" font-family="Helvetica,sans-Serif" font-size="10.00">+ removeEdge()</text>
<text text-anchor="start" x="310.5" y="-437.5" font-family="Helvetica,sans-Serif" font-size="10.00">+ begin()</text>
<text text-anchor="start" x="310.5" y="-426.5" font-family="Helvetica,sans-Serif" font-size="10.00">+ end()</text>
<text text-anchor="start" x="310.5" y="-415.5" font-family="Helvetica,sans-Serif" font-size="10.00">and 8 more...</text>
</a>
</g>
</g>
<!-- Node7&#45;&gt;Node4 -->
<g id="edge6" class="edge"><title>Node7&#45;&gt;Node4</title>
<path fill="none" stroke="#404040" d="M339.478,-408.2C337.206,-396.412 334.881,-384.35 332.624,-372.644"/>
<polygon fill="none" stroke="#404040" points="332.574,-372.383 327.511,-367.249 330.302,-360.6 335.366,-365.735 332.574,-372.383"/>
<text text-anchor="middle" x="348.5" y="-382" font-family="Helvetica,sans-Serif" font-size="10.00"> +data</text>
</g>
</g>
</svg>
        <g id="navigator" transform="translate(0 0)" fill="#404254">
                <rect fill="#f2f5e9" fill-opacity="0.5" stroke="#606060" stroke-width=".5" x="0" y="0" width="60" height="60"/>
                <use id="zoomplus" xlink:href="#zoomPlus" x="17" y="9" onmousedown="handleZoom(evt,'in')"/>
                <use id="zoomminus" xlink:href="#zoomMin" x="42" y="9" onmousedown="handleZoom(evt,'out')"/>
                <use id="reset" xlink:href="#resetDef" x="30" y="36" onmousedown="handleReset()"/>
                <g id="arrowUp" xlink:href="#dirArrow" transform="translate(30 24)" onmousedown="handlePan(0,-1)">
                  <use xlink:href="#rim" fill="#404040">
                        <set attributeName="fill" to="#808080" begin="arrowUp.mouseover" end="arrowUp.mouseout"/>
                  </use>
                  <path fill="none" stroke="white" stroke-width="1.5" d="M0,-3.0v7 M-2.5,-0.5L0,-3.0L2.5,-0.5"/>
                </g>
                <g id="arrowRight" xlink:href="#dirArrow" transform="rotate(90) translate(36 -43)" onmousedown="handlePan(1,0)">
                  <use xlink:href="#rim" fill="#404040">
                        <set attributeName="fill" to="#808080" begin="arrowRight.mouseover" end="arrowRight.mouseout"/>
                  </use>
                  <path fill="none" stroke="white" stroke-width="1.5" d="M0,-3.0v7 M-2.5,-0.5L0,-3.0L2.5,-0.5"/>
                </g>
                <g id="arrowDown" xlink:href="#dirArrow" transform="rotate(180) translate(-30 -48)" onmousedown="handlePan(0,1)">
                  <use xlink:href="#rim" fill="#404040">
                        <set attributeName="fill" to="#808080" begin="arrowDown.mouseover" end="arrowDown.mouseout"/>
                  </use>
                  <path fill="none" stroke="white" stroke-width="1.5" d="M0,-3.0v7 M-2.5,-0.5L0,-3.0L2.5,-0.5"/>
                </g>
                <g id="arrowLeft" xlink:href="#dirArrow" transform="rotate(270) translate(-36 17)" onmousedown="handlePan(-1,0)">
                  <use xlink:href="#rim" fill="#404040">
                        <set attributeName="fill" to="#808080" begin="arrowLeft.mouseover" end="arrowLeft.mouseout"/>
                  </use>
                  <path fill="none" stroke="white" stroke-width="1.5" d="M0,-3.0v7 M-2.5,-0.5L0,-3.0L2.5,-0.5"/>
                </g>
        </g>
        <svg viewBox="0 0 15 15" width="100%" height="30px" preserveAspectRatio="xMaxYMin meet">
         <g id="arrow_out" transform="scale(0.3 0.3)">
          <a xlink:href="classspider_1_1_layout__coll__graph_org.svg" target="_base">
           <rect id="button" ry="5" rx="5" y="6" x="6" height="38" width="38"
                fill="#f2f5e9" fill-opacity="0.5" stroke="#606060" stroke-width="1.0"/>
           <path id="arrow"
             d="M 11.500037,31.436501 C 11.940474,20.09759 22.043105,11.32322 32.158766,21.979434 L 37.068811,17.246167 C 37.068811,17.246167 37.088388,32 37.088388,32 L 22.160133,31.978069 C 22.160133,31.978069 26.997745,27.140456 26.997745,27.140456 C 18.528582,18.264221 13.291696,25.230495 11.500037,31.436501 z"
             style="fill:#404040;"/>
          </a>
         </g>
        </svg>
</svg>
