<?xml version="1.0" encoding="UTF-8" standalone="no"?>
<!DOCTYPE svg PUBLIC "-//W3C//DTD SVG 1.1//EN"
 "http://www.w3.org/Graphics/SVG/1.1/DTD/svg11.dtd">
<!-- Generated by graphviz version 2.38.0 (20140413.2041)
 -->
<!-- Title: spider::Value Pages: 1 -->
<!--zoomable 513 -->
<svg id="main" version="1.1" xmlns="http://www.w3.org/2000/svg" xmlns:xlink="http://www.w3.org/1999/xlink" xml:space="preserve" onload="init(evt)">
<style type="text/css"><![CDATA[
.edge:hover path { stroke: red; }
.edge:hover polygon { stroke: red; fill: red; }
]]></style>
<script type="text/javascript"><![CDATA[
var edges = document.getElementsByTagName('g');
if (edges && edges.length) {
  for (var i=0;i<edges.length;i++) {
    if (edges[i].id.substr(0,4)=='edge') {
      edges[i].setAttribute('class','edge');
    }
  }
}
]]></script>
        <defs>
                <circle id="rim" cx="0" cy="0" r="7"/>
                <circle id="rim2" cx="0" cy="0" r="3.5"/>
                <g id="zoomPlus">
                        <use xlink:href="#rim" fill="#404040">
                                <set attributeName="fill" to="#808080" begin="zoomplus.mouseover" end="zoomplus.mouseout"/>
                        </use>
                        <path d="M-4,0h8M0,-4v8" fill="none" stroke="white" stroke-width="1.5" pointer-events="none"/>
                </g>
                <g id="zoomMin">
                        <use xlink:href="#rim" fill="#404040">
                                <set attributeName="fill" to="#808080" begin="zoomminus.mouseover" end="zoomminus.mouseout"/>
                        </use>
                        <path d="M-4,0h8" fill="none" stroke="white" stroke-width="1.5" pointer-events="none"/>
                </g>
                <g id="dirArrow">
                        <path fill="none" stroke="white" stroke-width="1.5" d="M0,-3.0v7 M-2.5,-0.5L0,-3.0L2.5,-0.5"/>
                </g>
               <g id="resetDef">
                       <use xlink:href="#rim2" fill="#404040">
                               <set attributeName="fill" to="#808080" begin="reset.mouseover" end="reset.mouseout"/>
                       </use>
               </g>
        </defs>

<script type="text/javascript">
var viewWidth = 1283;
var viewHeight = 513;
var sectionId = 'dynsection-0';
</script>
<script xlink:href="svgpan.js"/>
<svg id="graph" class="graph">
<g id="viewport">
<title>spider::Value</title>
<polygon fill="white" stroke="none" points="-4,4 -4,-509 1279,-509 1279,4 -4,4"/>
<!-- Node1 -->
<g id="node1" class="node"><title>Node1</title>
<polygon fill="#bfbfbf" stroke="black" points="592.5,-287.5 592.5,-410.5 702.5,-410.5 702.5,-287.5 592.5,-287.5"/>
<text text-anchor="middle" x="647.5" y="-398.5" font-family="Helvetica,sans-Serif" font-size="10.00">spider::Value</text>
<polyline fill="none" stroke="black" points="592.5,-391.5 702.5,-391.5 "/>
<text text-anchor="start" x="600.5" y="-379.5" font-family="Helvetica,sans-Serif" font-size="10.00">+ type</text>
<polyline fill="none" stroke="black" points="592.5,-372.5 702.5,-372.5 "/>
<text text-anchor="start" x="600.5" y="-360.5" font-family="Helvetica,sans-Serif" font-size="10.00">+ Value()</text>
<text text-anchor="start" x="600.5" y="-349.5" font-family="Helvetica,sans-Serif" font-size="10.00">+ ~Value()</text>
<text text-anchor="start" x="600.5" y="-338.5" font-family="Helvetica,sans-Serif" font-size="10.00">+ show()</text>
<text text-anchor="start" x="600.5" y="-327.5" font-family="Helvetica,sans-Serif" font-size="10.00">+ read()</text>
<text text-anchor="start" x="600.5" y="-316.5" font-family="Helvetica,sans-Serif" font-size="10.00">+ changeCallback()</text>
<text text-anchor="start" x="600.5" y="-305.5" font-family="Helvetica,sans-Serif" font-size="10.00">+ NameToTypeMap()</text>
<text text-anchor="start" x="600.5" y="-294.5" font-family="Helvetica,sans-Serif" font-size="10.00">+ TypeToNameMap()</text>
</g>
<!-- Node3 -->
<g id="node3" class="node"><title>Node3</title>
<g id="a_node3"><a xlink:href="classspider_1_1_bool_value.html" target="_top" xlink:title="BoolValue returns the value of an integer declared using the Boolean datatype supported by the langua...">
<polygon fill="white" stroke="black" points="0,-138.5 0,-217.5 93,-217.5 93,-138.5 0,-138.5"/>
<text text-anchor="middle" x="46.5" y="-205.5" font-family="Helvetica,sans-Serif" font-size="10.00">spider::BoolValue</text>
<polyline fill="none" stroke="black" points="0,-198.5 93,-198.5 "/>
<text text-anchor="start" x="8" y="-186.5" font-family="Helvetica,sans-Serif" font-size="10.00">+ data</text>
<polyline fill="none" stroke="black" points="0,-179.5 93,-179.5 "/>
<text text-anchor="start" x="8" y="-167.5" font-family="Helvetica,sans-Serif" font-size="10.00">+ BoolValue()</text>
<text text-anchor="start" x="8" y="-156.5" font-family="Helvetica,sans-Serif" font-size="10.00">+ show()</text>
<text text-anchor="start" x="8" y="-145.5" font-family="Helvetica,sans-Serif" font-size="10.00">+ read()</text>
</a>
</g>
</g>
<!-- Node1&#45;&gt;Node3 -->
<g id="edge2" class="edge"><title>Node1&#45;&gt;Node3</title>
<path fill="none" stroke="midnightblue" d="M582.168,-342.262C455.633,-330.204 182.534,-299.296 102.5,-251 88.9416,-242.818 77.4307,-230.042 68.4367,-217.51"/>
<polygon fill="none" stroke="midnightblue" points="582.2,-345.78 592.485,-343.234 582.857,-338.811 582.2,-345.78"/>
</g>
<!-- Node4 -->
<g id="node4" class="node"><title>Node4</title>
<g id="a_node4"><a xlink:href="classspider_1_1_dict_value.html" target="_top" xlink:title="{spider::DictValue\n|+ data\l|+ DictValue()\l+ DictValue()\l+ show()\l}">
<polygon fill="white" stroke="black" points="111.5,-138.5 111.5,-217.5 203.5,-217.5 203.5,-138.5 111.5,-138.5"/>
<text text-anchor="middle" x="157.5" y="-205.5" font-family="Helvetica,sans-Serif" font-size="10.00">spider::DictValue</text>
<polyline fill="none" stroke="black" points="111.5,-198.5 203.5,-198.5 "/>
<text text-anchor="start" x="119.5" y="-186.5" font-family="Helvetica,sans-Serif" font-size="10.00">+ data</text>
<polyline fill="none" stroke="black" points="111.5,-179.5 203.5,-179.5 "/>
<text text-anchor="start" x="119.5" y="-167.5" font-family="Helvetica,sans-Serif" font-size="10.00">+ DictValue()</text>
<text text-anchor="start" x="119.5" y="-156.5" font-family="Helvetica,sans-Serif" font-size="10.00">+ DictValue()</text>
<text text-anchor="start" x="119.5" y="-145.5" font-family="Helvetica,sans-Serif" font-size="10.00">+ show()</text>
</a>
</g>
</g>
<!-- Node1&#45;&gt;Node4 -->
<g id="edge3" class="edge"><title>Node1&#45;&gt;Node4</title>
<path fill="none" stroke="midnightblue" d="M582.384,-347.097C492.424,-342.992 328.15,-324.954 212.5,-251 199.381,-242.611 188.183,-229.942 179.383,-217.559"/>
<polygon fill="none" stroke="midnightblue" points="582.311,-350.597 592.447,-347.512 582.6,-343.603 582.311,-350.597"/>
</g>
<!-- Node5 -->
<g id="node5" class="node"><title>Node5</title>
<g id="a_node5"><a xlink:href="classspider_1_1_float_value.html" target="_top" xlink:title="FloatValue returns the value of an integer declared using the Float datatype supported by the languag...">
<polygon fill="white" stroke="black" points="222,-138.5 222,-217.5 317,-217.5 317,-138.5 222,-138.5"/>
<text text-anchor="middle" x="269.5" y="-205.5" font-family="Helvetica,sans-Serif" font-size="10.00">spider::FloatValue</text>
<polyline fill="none" stroke="black" points="222,-198.5 317,-198.5 "/>
<text text-anchor="start" x="230" y="-186.5" font-family="Helvetica,sans-Serif" font-size="10.00">+ data</text>
<polyline fill="none" stroke="black" points="222,-179.5 317,-179.5 "/>
<text text-anchor="start" x="230" y="-167.5" font-family="Helvetica,sans-Serif" font-size="10.00">+ FloatValue()</text>
<text text-anchor="start" x="230" y="-156.5" font-family="Helvetica,sans-Serif" font-size="10.00">+ show()</text>
<text text-anchor="start" x="230" y="-145.5" font-family="Helvetica,sans-Serif" font-size="10.00">+ read()</text>
</a>
</g>
</g>
<!-- Node1&#45;&gt;Node5 -->
<g id="edge4" class="edge"><title>Node1&#45;&gt;Node5</title>
<path fill="none" stroke="midnightblue" d="M582.121,-340.233C513.232,-329.472 404.042,-304.869 325.5,-251 312.832,-242.312 301.725,-229.871 292.813,-217.768"/>
<polygon fill="none" stroke="midnightblue" points="581.992,-343.753 592.402,-341.783 583.036,-336.831 581.992,-343.753"/>
</g>
<!-- Node6 -->
<g id="node6" class="node"><title>Node6</title>
<g id="a_node6"><a xlink:href="classspider_1_1_function_value.html" target="_top" xlink:title="{spider::FunctionValue\n||+ FunctionValue()\l+ call()\l+ show()\l+ getName()\l}">
<polygon fill="white" stroke="black" points="335,-133 335,-223 446,-223 446,-133 335,-133"/>
<text text-anchor="middle" x="390.5" y="-211" font-family="Helvetica,sans-Serif" font-size="10.00">spider::FunctionValue</text>
<polyline fill="none" stroke="black" points="335,-204 446,-204 "/>
<text text-anchor="middle" x="390.5" y="-192" font-family="Helvetica,sans-Serif" font-size="10.00"> </text>
<polyline fill="none" stroke="black" points="335,-185 446,-185 "/>
<text text-anchor="start" x="343" y="-173" font-family="Helvetica,sans-Serif" font-size="10.00">+ FunctionValue()</text>
<text text-anchor="start" x="343" y="-162" font-family="Helvetica,sans-Serif" font-size="10.00">+ call()</text>
<text text-anchor="start" x="343" y="-151" font-family="Helvetica,sans-Serif" font-size="10.00">+ show()</text>
<text text-anchor="start" x="343" y="-140" font-family="Helvetica,sans-Serif" font-size="10.00">+ getName()</text>
</a>
</g>
</g>
<!-- Node1&#45;&gt;Node6 -->
<g id="edge5" class="edge"><title>Node1&#45;&gt;Node6</title>
<path fill="none" stroke="midnightblue" d="M583.086,-322.966C543.787,-305.97 493.736,-281.134 454.5,-251 444.021,-242.952 433.915,-233.015 424.95,-223.121"/>
<polygon fill="none" stroke="midnightblue" points="581.748,-326.2 592.32,-326.901 584.493,-319.76 581.748,-326.2"/>
</g>
<!-- Node9 -->
<g id="node9" class="node"><title>Node9</title>
<g id="a_node9"><a xlink:href="classspider_1_1_graph_value.html" target="_top" xlink:title="wrapper class for Graph (graph::AdjacencyList&lt;int,int&gt;) ">
<polygon fill="white" stroke="black" points="464,-105.5 464,-250.5 577,-250.5 577,-105.5 464,-105.5"/>
<text text-anchor="middle" x="520.5" y="-238.5" font-family="Helvetica,sans-Serif" font-size="10.00">spider::GraphValue</text>
<polyline fill="none" stroke="black" points="464,-231.5 577,-231.5 "/>
<text text-anchor="start" x="472" y="-219.5" font-family="Helvetica,sans-Serif" font-size="10.00">+ data</text>
<polyline fill="none" stroke="black" points="464,-212.5 577,-212.5 "/>
<text text-anchor="start" x="472" y="-200.5" font-family="Helvetica,sans-Serif" font-size="10.00">+ GraphValue()</text>
<text text-anchor="start" x="472" y="-189.5" font-family="Helvetica,sans-Serif" font-size="10.00">+ GraphValue()</text>
<text text-anchor="start" x="472" y="-178.5" font-family="Helvetica,sans-Serif" font-size="10.00">+ show()</text>
<text text-anchor="start" x="472" y="-167.5" font-family="Helvetica,sans-Serif" font-size="10.00">+ setVertexAttribute()</text>
<text text-anchor="start" x="472" y="-156.5" font-family="Helvetica,sans-Serif" font-size="10.00">+ setVertexAttribute()</text>
<text text-anchor="start" x="472" y="-145.5" font-family="Helvetica,sans-Serif" font-size="10.00">+ getVertexAttribute()</text>
<text text-anchor="start" x="472" y="-134.5" font-family="Helvetica,sans-Serif" font-size="10.00">+ getGraphAttribs()</text>
<text text-anchor="start" x="472" y="-123.5" font-family="Helvetica,sans-Serif" font-size="10.00">+ hasVertexAttribute()</text>
<text text-anchor="start" x="472" y="-112.5" font-family="Helvetica,sans-Serif" font-size="10.00">+ hasAttribute()</text>
</a>
</g>
</g>
<!-- Node1&#45;&gt;Node9 -->
<g id="edge8" class="edge"><title>Node1&#45;&gt;Node9</title>
<path fill="none" stroke="midnightblue" d="M595.842,-279.259C588.755,-269.827 581.463,-260.124 574.338,-250.643"/>
<polygon fill="none" stroke="midnightblue" points="593.203,-281.573 602.009,-287.464 598.799,-277.367 593.203,-281.573"/>
</g>
<!-- Node10 -->
<g id="node10" class="node"><title>Node10</title>
<g id="a_node10"><a xlink:href="classspider_1_1_integer_value.html" target="_top" xlink:title="IntegerValue returns the value of an integer declared using the Integer datatype supported by the lan...">
<polygon fill="white" stroke="black" points="595.5,-138.5 595.5,-217.5 699.5,-217.5 699.5,-138.5 595.5,-138.5"/>
<text text-anchor="middle" x="647.5" y="-205.5" font-family="Helvetica,sans-Serif" font-size="10.00">spider::IntegerValue</text>
<polyline fill="none" stroke="black" points="595.5,-198.5 699.5,-198.5 "/>
<text text-anchor="start" x="603.5" y="-186.5" font-family="Helvetica,sans-Serif" font-size="10.00">+ data</text>
<polyline fill="none" stroke="black" points="595.5,-179.5 699.5,-179.5 "/>
<text text-anchor="start" x="603.5" y="-167.5" font-family="Helvetica,sans-Serif" font-size="10.00">+ IntegerValue()</text>
<text text-anchor="start" x="603.5" y="-156.5" font-family="Helvetica,sans-Serif" font-size="10.00">+ show()</text>
<text text-anchor="start" x="603.5" y="-145.5" font-family="Helvetica,sans-Serif" font-size="10.00">+ read()</text>
</a>
</g>
</g>
<!-- Node1&#45;&gt;Node10 -->
<g id="edge9" class="edge"><title>Node1&#45;&gt;Node10</title>
<path fill="none" stroke="midnightblue" d="M647.5,-277.22C647.5,-256.774 647.5,-235.228 647.5,-217.542"/>
<polygon fill="none" stroke="midnightblue" points="644,-277.464 647.5,-287.464 651,-277.465 644,-277.464"/>
</g>
<!-- Node11 -->
<g id="node11" class="node"><title>Node11</title>
<g id="a_node11"><a xlink:href="classspider_1_1_list_value.html" target="_top" xlink:title="{spider::ListValue\n|+ data\l|+ ListValue()\l+ ListValue()\l+ show()\l}">
<polygon fill="white" stroke="black" points="718,-138.5 718,-217.5 807,-217.5 807,-138.5 718,-138.5"/>
<text text-anchor="middle" x="762.5" y="-205.5" font-family="Helvetica,sans-Serif" font-size="10.00">spider::ListValue</text>
<polyline fill="none" stroke="black" points="718,-198.5 807,-198.5 "/>
<text text-anchor="start" x="726" y="-186.5" font-family="Helvetica,sans-Serif" font-size="10.00">+ data</text>
<polyline fill="none" stroke="black" points="718,-179.5 807,-179.5 "/>
<text text-anchor="start" x="726" y="-167.5" font-family="Helvetica,sans-Serif" font-size="10.00">+ ListValue()</text>
<text text-anchor="start" x="726" y="-156.5" font-family="Helvetica,sans-Serif" font-size="10.00">+ ListValue()</text>
<text text-anchor="start" x="726" y="-145.5" font-family="Helvetica,sans-Serif" font-size="10.00">+ show()</text>
</a>
</g>
</g>
<!-- Node1&#45;&gt;Node11 -->
<g id="edge10" class="edge"><title>Node1&#45;&gt;Node11</title>
<path fill="none" stroke="midnightblue" d="M694.332,-279.177C708.637,-258.156 723.854,-235.793 736.273,-217.542"/>
<polygon fill="none" stroke="midnightblue" points="691.425,-277.228 688.693,-287.464 697.212,-281.166 691.425,-277.228"/>
</g>
<!-- Node12 -->
<g id="node12" class="node"><title>Node12</title>
<g id="a_node12"><a xlink:href="classspider_1_1_string_value.html" target="_top" xlink:title="StringValue returns the value of an integer declared using the String datatype supported by the langu...">
<polygon fill="white" stroke="black" points="825,-138.5 825,-217.5 924,-217.5 924,-138.5 825,-138.5"/>
<text text-anchor="middle" x="874.5" y="-205.5" font-family="Helvetica,sans-Serif" font-size="10.00">spider::StringValue</text>
<polyline fill="none" stroke="black" points="825,-198.5 924,-198.5 "/>
<text text-anchor="start" x="833" y="-186.5" font-family="Helvetica,sans-Serif" font-size="10.00">+ data</text>
<polyline fill="none" stroke="black" points="825,-179.5 924,-179.5 "/>
<text text-anchor="start" x="833" y="-167.5" font-family="Helvetica,sans-Serif" font-size="10.00">+ StringValue()</text>
<text text-anchor="start" x="833" y="-156.5" font-family="Helvetica,sans-Serif" font-size="10.00">+ show()</text>
<text text-anchor="start" x="833" y="-145.5" font-family="Helvetica,sans-Serif" font-size="10.00">+ read()</text>
</a>
</g>
</g>
<!-- Node1&#45;&gt;Node12 -->
<g id="edge11" class="edge"><title>Node1&#45;&gt;Node12</title>
<path fill="none" stroke="midnightblue" d="M711.635,-317.963C744.538,-300.881 784.172,-277.6 815.5,-251 826.957,-241.272 837.876,-229.11 847.136,-217.566"/>
<polygon fill="none" stroke="midnightblue" points="709.853,-314.943 702.546,-322.615 713.042,-321.175 709.853,-314.943"/>
</g>
<!-- Node13 -->
<g id="node13" class="node"><title>Node13</title>
<g id="a_node13"><a xlink:href="classspider_1_1_vattr_value.html" target="_top" xlink:title="{spider::VattrValue\n|+ data\l|+ VattrValue()\l+ VattrValue()\l+ show()\l+ isKnown()\l+ count()\l}">
<polygon fill="white" stroke="black" points="942,-127.5 942,-228.5 1037,-228.5 1037,-127.5 942,-127.5"/>
<text text-anchor="middle" x="989.5" y="-216.5" font-family="Helvetica,sans-Serif" font-size="10.00">spider::VattrValue</text>
<polyline fill="none" stroke="black" points="942,-209.5 1037,-209.5 "/>
<text text-anchor="start" x="950" y="-197.5" font-family="Helvetica,sans-Serif" font-size="10.00">+ data</text>
<polyline fill="none" stroke="black" points="942,-190.5 1037,-190.5 "/>
<text text-anchor="start" x="950" y="-178.5" font-family="Helvetica,sans-Serif" font-size="10.00">+ VattrValue()</text>
<text text-anchor="start" x="950" y="-167.5" font-family="Helvetica,sans-Serif" font-size="10.00">+ VattrValue()</text>
<text text-anchor="start" x="950" y="-156.5" font-family="Helvetica,sans-Serif" font-size="10.00">+ show()</text>
<text text-anchor="start" x="950" y="-145.5" font-family="Helvetica,sans-Serif" font-size="10.00">+ isKnown()</text>
<text text-anchor="start" x="950" y="-134.5" font-family="Helvetica,sans-Serif" font-size="10.00">+ count()</text>
</a>
</g>
</g>
<!-- Node1&#45;&gt;Node13 -->
<g id="edge12" class="edge"><title>Node1&#45;&gt;Node13</title>
<path fill="none" stroke="midnightblue" d="M712.588,-336.874C773.722,-324.006 865.555,-298.249 932.5,-251 941.227,-244.841 949.29,-236.973 956.44,-228.714"/>
<polygon fill="none" stroke="midnightblue" points="711.768,-333.469 702.673,-338.905 713.172,-340.327 711.768,-333.469"/>
</g>
<!-- Node14 -->
<g id="node14" class="node"><title>Node14</title>
<g id="a_node14"><a xlink:href="classspider_1_1_void_value.html" target="_top" xlink:title="VoidValue returns nothing. It is a class declared to tackle all Void variables declared using the Voi...">
<polygon fill="white" stroke="black" points="1055,-149.5 1055,-206.5 1148,-206.5 1148,-149.5 1055,-149.5"/>
<text text-anchor="middle" x="1101.5" y="-194.5" font-family="Helvetica,sans-Serif" font-size="10.00">spider::VoidValue</text>
<polyline fill="none" stroke="black" points="1055,-187.5 1148,-187.5 "/>
<text text-anchor="middle" x="1101.5" y="-175.5" font-family="Helvetica,sans-Serif" font-size="10.00"> </text>
<polyline fill="none" stroke="black" points="1055,-168.5 1148,-168.5 "/>
<text text-anchor="start" x="1063" y="-156.5" font-family="Helvetica,sans-Serif" font-size="10.00">+ VoidValue()</text>
</a>
</g>
</g>
<!-- Node1&#45;&gt;Node14 -->
<g id="edge13" class="edge"><title>Node1&#45;&gt;Node14</title>
<path fill="none" stroke="midnightblue" d="M712.821,-345.342C796.459,-339.144 942.931,-318.63 1046.5,-251 1063.36,-239.992 1077.11,-221.992 1086.64,-206.744"/>
<polygon fill="none" stroke="midnightblue" points="712.425,-341.861 702.692,-346.045 712.91,-348.844 712.425,-341.861"/>
</g>
<!-- Node15 -->
<g id="node15" class="node"><title>Node15</title>
<g id="a_node15"><a xlink:href="classspider_1_1_window_value.html" target="_top" xlink:title="{spider::WindowValue\n|+ data\l|+ WindowValue()\l}">
<polygon fill="white" stroke="black" points="1166,-149.5 1166,-206.5 1275,-206.5 1275,-149.5 1166,-149.5"/>
<text text-anchor="middle" x="1220.5" y="-194.5" font-family="Helvetica,sans-Serif" font-size="10.00">spider::WindowValue</text>
<polyline fill="none" stroke="black" points="1166,-187.5 1275,-187.5 "/>
<text text-anchor="start" x="1174" y="-175.5" font-family="Helvetica,sans-Serif" font-size="10.00">+ data</text>
<polyline fill="none" stroke="black" points="1166,-168.5 1275,-168.5 "/>
<text text-anchor="start" x="1174" y="-156.5" font-family="Helvetica,sans-Serif" font-size="10.00">+ WindowValue()</text>
</a>
</g>
</g>
<!-- Node1&#45;&gt;Node15 -->
<g id="edge14" class="edge"><title>Node1&#45;&gt;Node15</title>
<path fill="none" stroke="midnightblue" d="M712.995,-348.832C814.803,-347.335 1014.2,-333.041 1157.5,-251 1176.09,-240.354 1191.95,-222.155 1203.1,-206.718"/>
<polygon fill="none" stroke="midnightblue" points="712.818,-345.333 702.857,-348.943 712.895,-352.333 712.818,-345.333"/>
</g>
<!-- Node2 -->
<g id="node2" class="node"><title>Node2</title>
<polygon fill="white" stroke="#bfbfbf" points="621,-447.5 621,-504.5 674,-504.5 674,-447.5 621,-447.5"/>
<text text-anchor="middle" x="647.5" y="-492.5" font-family="Helvetica,sans-Serif" font-size="10.00">QObject</text>
<polyline fill="none" stroke="#bfbfbf" points="621,-485.5 674,-485.5 "/>
<text text-anchor="middle" x="647.5" y="-473.5" font-family="Helvetica,sans-Serif" font-size="10.00"> </text>
<polyline fill="none" stroke="#bfbfbf" points="621,-466.5 674,-466.5 "/>
<text text-anchor="middle" x="647.5" y="-454.5" font-family="Helvetica,sans-Serif" font-size="10.00"> </text>
</g>
<!-- Node2&#45;&gt;Node1 -->
<g id="edge1" class="edge"><title>Node2&#45;&gt;Node1</title>
<path fill="none" stroke="midnightblue" d="M647.5,-437.099C647.5,-428.739 647.5,-419.68 647.5,-410.672"/>
<polygon fill="none" stroke="midnightblue" points="644,-437.258 647.5,-447.258 651,-437.258 644,-437.258"/>
</g>
<!-- Node7 -->
<g id="node7" class="node"><title>Node7</title>
<g id="a_node7"><a xlink:href="classspider_1_1_inbuilt_function.html" target="_top" xlink:title="{spider::InbuiltFunction\n||+ InbuiltFunction()\l+ call()\l}">
<polygon fill="white" stroke="black" points="262,-0.5 262,-68.5 375,-68.5 375,-0.5 262,-0.5"/>
<text text-anchor="middle" x="318.5" y="-56.5" font-family="Helvetica,sans-Serif" font-size="10.00">spider::InbuiltFunction</text>
<polyline fill="none" stroke="black" points="262,-49.5 375,-49.5 "/>
<text text-anchor="middle" x="318.5" y="-37.5" font-family="Helvetica,sans-Serif" font-size="10.00"> </text>
<polyline fill="none" stroke="black" points="262,-30.5 375,-30.5 "/>
<text text-anchor="start" x="270" y="-18.5" font-family="Helvetica,sans-Serif" font-size="10.00">+ InbuiltFunction()</text>
<text text-anchor="start" x="270" y="-7.5" font-family="Helvetica,sans-Serif" font-size="10.00">+ call()</text>
</a>
</g>
</g>
<!-- Node6&#45;&gt;Node7 -->
<g id="edge6" class="edge"><title>Node6&#45;&gt;Node7</title>
<path fill="none" stroke="midnightblue" d="M363.277,-123.498C353.956,-105.18 343.799,-85.2187 335.518,-68.9453"/>
<polygon fill="none" stroke="midnightblue" points="360.262,-125.291 367.916,-132.617 366.501,-122.117 360.262,-125.291"/>
</g>
<!-- Node8 -->
<g id="node8" class="node"><title>Node8</title>
<g id="a_node8"><a xlink:href="classspider_1_1_user_defined_function.html" target="_top" xlink:title="{spider::UserDefinedFunction\n||+ UserDefinedFunction()\l+ call()\l}">
<polygon fill="white" stroke="black" points="393,-0.5 393,-68.5 534,-68.5 534,-0.5 393,-0.5"/>
<text text-anchor="middle" x="463.5" y="-56.5" font-family="Helvetica,sans-Serif" font-size="10.00">spider::UserDefinedFunction</text>
<polyline fill="none" stroke="black" points="393,-49.5 534,-49.5 "/>
<text text-anchor="middle" x="463.5" y="-37.5" font-family="Helvetica,sans-Serif" font-size="10.00"> </text>
<polyline fill="none" stroke="black" points="393,-30.5 534,-30.5 "/>
<text text-anchor="start" x="401" y="-18.5" font-family="Helvetica,sans-Serif" font-size="10.00">+ UserDefinedFunction()</text>
<text text-anchor="start" x="401" y="-7.5" font-family="Helvetica,sans-Serif" font-size="10.00">+ call()</text>
</a>
</g>
</g>
<!-- Node6&#45;&gt;Node8 -->
<g id="edge7" class="edge"><title>Node6&#45;&gt;Node8</title>
<path fill="none" stroke="midnightblue" d="M418.102,-123.498C427.552,-105.18 437.85,-85.2187 446.246,-68.9453"/>
<polygon fill="none" stroke="midnightblue" points="414.872,-122.125 413.397,-132.617 421.093,-125.334 414.872,-122.125"/>
</g>
</g>
</svg>
        <g id="navigator" transform="translate(0 0)" fill="#404254">
                <rect fill="#f2f5e9" fill-opacity="0.5" stroke="#606060" stroke-width=".5" x="0" y="0" width="60" height="60"/>
                <use id="zoomplus" xlink:href="#zoomPlus" x="17" y="9" onmousedown="handleZoom(evt,'in')"/>
                <use id="zoomminus" xlink:href="#zoomMin" x="42" y="9" onmousedown="handleZoom(evt,'out')"/>
                <use id="reset" xlink:href="#resetDef" x="30" y="36" onmousedown="handleReset()"/>
                <g id="arrowUp" xlink:href="#dirArrow" transform="translate(30 24)" onmousedown="handlePan(0,-1)">
                  <use xlink:href="#rim" fill="#404040">
                        <set attributeName="fill" to="#808080" begin="arrowUp.mouseover" end="arrowUp.mouseout"/>
                  </use>
                  <path fill="none" stroke="white" stroke-width="1.5" d="M0,-3.0v7 M-2.5,-0.5L0,-3.0L2.5,-0.5"/>
                </g>
                <g id="arrowRight" xlink:href="#dirArrow" transform="rotate(90) translate(36 -43)" onmousedown="handlePan(1,0)">
                  <use xlink:href="#rim" fill="#404040">
                        <set attributeName="fill" to="#808080" begin="arrowRight.mouseover" end="arrowRight.mouseout"/>
                  </use>
                  <path fill="none" stroke="white" stroke-width="1.5" d="M0,-3.0v7 M-2.5,-0.5L0,-3.0L2.5,-0.5"/>
                </g>
                <g id="arrowDown" xlink:href="#dirArrow" transform="rotate(180) translate(-30 -48)" onmousedown="handlePan(0,1)">
                  <use xlink:href="#rim" fill="#404040">
                        <set attributeName="fill" to="#808080" begin="arrowDown.mouseover" end="arrowDown.mouseout"/>
                  </use>
                  <path fill="none" stroke="white" stroke-width="1.5" d="M0,-3.0v7 M-2.5,-0.5L0,-3.0L2.5,-0.5"/>
                </g>
                <g id="arrowLeft" xlink:href="#dirArrow" transform="rotate(270) translate(-36 17)" onmousedown="handlePan(-1,0)">
                  <use xlink:href="#rim" fill="#404040">
                        <set attributeName="fill" to="#808080" begin="arrowLeft.mouseover" end="arrowLeft.mouseout"/>
                  </use>
                  <path fill="none" stroke="white" stroke-width="1.5" d="M0,-3.0v7 M-2.5,-0.5L0,-3.0L2.5,-0.5"/>
                </g>
        </g>
        <svg viewBox="0 0 15 15" width="100%" height="30px" preserveAspectRatio="xMaxYMin meet">
         <g id="arrow_out" transform="scale(0.3 0.3)">
          <a xlink:href="classspider_1_1_value__inherit__graph_org.svg" target="_base">
           <rect id="button" ry="5" rx="5" y="6" x="6" height="38" width="38"
                fill="#f2f5e9" fill-opacity="0.5" stroke="#606060" stroke-width="1.0"/>
           <path id="arrow"
             d="M 11.500037,31.436501 C 11.940474,20.09759 22.043105,11.32322 32.158766,21.979434 L 37.068811,17.246167 C 37.068811,17.246167 37.088388,32 37.088388,32 L 22.160133,31.978069 C 22.160133,31.978069 26.997745,27.140456 26.997745,27.140456 C 18.528582,18.264221 13.291696,25.230495 11.500037,31.436501 z"
             style="fill:#404040;"/>
          </a>
         </g>
        </svg>
</svg>
