<?xml version="1.0" encoding="UTF-8" standalone="no"?>
<!DOCTYPE svg PUBLIC "-//W3C//DTD SVG 1.1//EN"
 "http://www.w3.org/Graphics/SVG/1.1/DTD/svg11.dtd">
<!-- Generated by graphviz version 2.38.0 (20140413.2041)
 -->
<!-- Title: spider::CircularLayout Pages: 1 -->
<svg width="120pt" height="314pt"
 viewBox="0.00 0.00 120.00 314.00" xmlns="http://www.w3.org/2000/svg" xmlns:xlink="http://www.w3.org/1999/xlink">
<g id="graph0" class="graph" transform="scale(1 1) rotate(0) translate(4 310)">
<title>spider::CircularLayout</title>
<polygon fill="white" stroke="none" points="-4,4 -4,-310 116,-310 116,4 -4,4"/>
<!-- Node1 -->
<g id="node1" class="node"><title>Node1</title>
<polygon fill="#bfbfbf" stroke="black" points="-7.10543e-15,-0.5 -7.10543e-15,-68.5 112,-68.5 112,-0.5 -7.10543e-15,-0.5"/>
<text text-anchor="middle" x="56" y="-56.5" font-family="Helvetica,sans-Serif" font-size="10.00">spider::CircularLayout</text>
<polyline fill="none" stroke="black" points="-7.10543e-15,-49.5 112,-49.5 "/>
<text text-anchor="middle" x="56" y="-37.5" font-family="Helvetica,sans-Serif" font-size="10.00"> </text>
<polyline fill="none" stroke="black" points="-7.10543e-15,-30.5 112,-30.5 "/>
<text text-anchor="start" x="8" y="-18.5" font-family="Helvetica,sans-Serif" font-size="10.00">+ CircularLayout()</text>
<text text-anchor="start" x="8" y="-7.5" font-family="Helvetica,sans-Serif" font-size="10.00">+ generate()</text>
</g>
<!-- Node2 -->
<g id="node2" class="node"><title>Node2</title>
<g id="a_node2"><a xlink:href="classspider_1_1_layout.html" target="_top" xlink:title="{spider::Layout\n|# points\l# curves\l# hasEdgeData\l# g\l|+ Layout()\l+ ~Layout()\l+ generate()\l+ getVertex()\l+ getEdge()\l+ getGraph()\l+ getGraphValue()\l+ getVertexAttribute()\l+ getEdgeAttribute()\l+ setVertexAttribute()\l+ setEdgeAttribute()\l}">
<polygon fill="white" stroke="black" points="1,-105.5 1,-305.5 111,-305.5 111,-105.5 1,-105.5"/>
<text text-anchor="middle" x="56" y="-293.5" font-family="Helvetica,sans-Serif" font-size="10.00">spider::Layout</text>
<polyline fill="none" stroke="black" points="1,-286.5 111,-286.5 "/>
<text text-anchor="start" x="9" y="-274.5" font-family="Helvetica,sans-Serif" font-size="10.00"># points</text>
<text text-anchor="start" x="9" y="-263.5" font-family="Helvetica,sans-Serif" font-size="10.00"># curves</text>
<text text-anchor="start" x="9" y="-252.5" font-family="Helvetica,sans-Serif" font-size="10.00"># hasEdgeData</text>
<text text-anchor="start" x="9" y="-241.5" font-family="Helvetica,sans-Serif" font-size="10.00"># g</text>
<polyline fill="none" stroke="black" points="1,-234.5 111,-234.5 "/>
<text text-anchor="start" x="9" y="-222.5" font-family="Helvetica,sans-Serif" font-size="10.00">+ Layout()</text>
<text text-anchor="start" x="9" y="-211.5" font-family="Helvetica,sans-Serif" font-size="10.00">+ ~Layout()</text>
<text text-anchor="start" x="9" y="-200.5" font-family="Helvetica,sans-Serif" font-size="10.00">+ generate()</text>
<text text-anchor="start" x="9" y="-189.5" font-family="Helvetica,sans-Serif" font-size="10.00">+ getVertex()</text>
<text text-anchor="start" x="9" y="-178.5" font-family="Helvetica,sans-Serif" font-size="10.00">+ getEdge()</text>
<text text-anchor="start" x="9" y="-167.5" font-family="Helvetica,sans-Serif" font-size="10.00">+ getGraph()</text>
<text text-anchor="start" x="9" y="-156.5" font-family="Helvetica,sans-Serif" font-size="10.00">+ getGraphValue()</text>
<text text-anchor="start" x="9" y="-145.5" font-family="Helvetica,sans-Serif" font-size="10.00">+ getVertexAttribute()</text>
<text text-anchor="start" x="9" y="-134.5" font-family="Helvetica,sans-Serif" font-size="10.00">+ getEdgeAttribute()</text>
<text text-anchor="start" x="9" y="-123.5" font-family="Helvetica,sans-Serif" font-size="10.00">+ setVertexAttribute()</text>
<text text-anchor="start" x="9" y="-112.5" font-family="Helvetica,sans-Serif" font-size="10.00">+ setEdgeAttribute()</text>
</a>
</g>
</g>
<!-- Node2&#45;&gt;Node1 -->
<g id="edge1" class="edge"><title>Node2&#45;&gt;Node1</title>
<path fill="none" stroke="midnightblue" d="M56,-94.9218C56,-85.5767 56,-76.6815 56,-68.7534"/>
<polygon fill="none" stroke="midnightblue" points="52.5001,-95.2144 56,-105.214 59.5001,-95.2145 52.5001,-95.2144"/>
</g>
</g>
</svg>
