<?xml version="1.0" encoding="UTF-8" standalone="no"?>
<!DOCTYPE svg PUBLIC "-//W3C//DTD SVG 1.1//EN"
 "http://www.w3.org/Graphics/SVG/1.1/DTD/svg11.dtd">
<!-- Generated by graphviz version 2.38.0 (20140413.2041)
 -->
<!-- Title: graph::Search&lt; Graph, Container &gt; Pages: 1 -->
<svg width="404pt" height="457pt"
 viewBox="0.00 0.00 404.00 457.00" xmlns="http://www.w3.org/2000/svg" xmlns:xlink="http://www.w3.org/1999/xlink">
<g id="graph0" class="graph" transform="scale(1 1) rotate(0) translate(4 453)">
<title>graph::Search&lt; Graph, Container &gt;</title>
<polygon fill="white" stroke="none" points="-4,4 -4,-453 400,-453 400,4 -4,4"/>
<!-- Node1 -->
<g id="node1" class="node"><title>Node1</title>
<polygon fill="#bfbfbf" stroke="black" points="149,-0.5 149,-222.5 265,-222.5 265,-0.5 149,-0.5"/>
<text text-anchor="start" x="157" y="-210.5" font-family="Helvetica,sans-Serif" font-size="10.00">graph::Search&lt; Graph,</text>
<text text-anchor="middle" x="207" y="-199.5" font-family="Helvetica,sans-Serif" font-size="10.00"> Container &gt;</text>
<polyline fill="none" stroke="black" points="149,-192.5 265,-192.5 "/>
<text text-anchor="start" x="157" y="-180.5" font-family="Helvetica,sans-Serif" font-size="10.00"># fringe</text>
<text text-anchor="start" x="157" y="-169.5" font-family="Helvetica,sans-Serif" font-size="10.00"># source</text>
<text text-anchor="start" x="157" y="-158.5" font-family="Helvetica,sans-Serif" font-size="10.00"># p1</text>
<text text-anchor="start" x="157" y="-147.5" font-family="Helvetica,sans-Serif" font-size="10.00"># p2</text>
<text text-anchor="start" x="157" y="-136.5" font-family="Helvetica,sans-Serif" font-size="10.00"># p3</text>
<text text-anchor="start" x="157" y="-125.5" font-family="Helvetica,sans-Serif" font-size="10.00"># p4</text>
<polyline fill="none" stroke="black" points="149,-118.5 265,-118.5 "/>
<text text-anchor="start" x="157" y="-106.5" font-family="Helvetica,sans-Serif" font-size="10.00">+ Search()</text>
<text text-anchor="start" x="157" y="-95.5" font-family="Helvetica,sans-Serif" font-size="10.00">+ ~Search()</text>
<text text-anchor="start" x="157" y="-84.5" font-family="Helvetica,sans-Serif" font-size="10.00">+ operator()()</text>
<text text-anchor="start" x="157" y="-73.5" font-family="Helvetica,sans-Serif" font-size="10.00">+ getDistanceArray()</text>
<text text-anchor="start" x="157" y="-62.5" font-family="Helvetica,sans-Serif" font-size="10.00">+ getParentArray()</text>
<text text-anchor="start" x="157" y="-51.5" font-family="Helvetica,sans-Serif" font-size="10.00">+ setp1()</text>
<text text-anchor="start" x="157" y="-40.5" font-family="Helvetica,sans-Serif" font-size="10.00">+ setp2()</text>
<text text-anchor="start" x="157" y="-29.5" font-family="Helvetica,sans-Serif" font-size="10.00">+ setp3()</text>
<text text-anchor="start" x="157" y="-18.5" font-family="Helvetica,sans-Serif" font-size="10.00">+ setp4()</text>
<text text-anchor="start" x="157" y="-7.5" font-family="Helvetica,sans-Serif" font-size="10.00">+ resetFringe()</text>
</g>
<!-- Node2 -->
<g id="node2" class="node"><title>Node2</title>
<g id="a_node2"><a xlink:href="classgraph_1_1_distance_array.html" target="_top" xlink:title="{graph::DistanceArray\l\&lt; graph::AdjacencyList \&gt;\n||+ isUnknown()\l+ set()\l+ get()\l+ updateIfLess()\l+ operator[]()\l+ size()\l}">
<polygon fill="white" stroke="black" points="0,-298 0,-421 126,-421 126,-298 0,-298"/>
<text text-anchor="start" x="8" y="-409" font-family="Helvetica,sans-Serif" font-size="10.00">graph::DistanceArray</text>
<text text-anchor="middle" x="63" y="-398" font-family="Helvetica,sans-Serif" font-size="10.00">&lt; graph::AdjacencyList &gt;</text>
<polyline fill="none" stroke="black" points="0,-391 126,-391 "/>
<text text-anchor="middle" x="63" y="-379" font-family="Helvetica,sans-Serif" font-size="10.00"> </text>
<polyline fill="none" stroke="black" points="0,-372 126,-372 "/>
<text text-anchor="start" x="8" y="-360" font-family="Helvetica,sans-Serif" font-size="10.00">+ isUnknown()</text>
<text text-anchor="start" x="8" y="-349" font-family="Helvetica,sans-Serif" font-size="10.00">+ set()</text>
<text text-anchor="start" x="8" y="-338" font-family="Helvetica,sans-Serif" font-size="10.00">+ get()</text>
<text text-anchor="start" x="8" y="-327" font-family="Helvetica,sans-Serif" font-size="10.00">+ updateIfLess()</text>
<text text-anchor="start" x="8" y="-316" font-family="Helvetica,sans-Serif" font-size="10.00">+ operator[]()</text>
<text text-anchor="start" x="8" y="-305" font-family="Helvetica,sans-Serif" font-size="10.00">+ size()</text>
</a>
</g>
</g>
<!-- Node2&#45;&gt;Node1 -->
<g id="edge1" class="edge"><title>Node2&#45;&gt;Node1</title>
<path fill="none" stroke="#404040" d="M98.5955,-297.691C111.918,-274.932 127.497,-248.317 142.623,-222.478"/>
<polygon fill="none" stroke="#404040" points="142.779,-222.21 142.358,-215.011 148.842,-211.854 149.262,-219.053 142.779,-222.21"/>
<text text-anchor="middle" x="143.5" y="-244" font-family="Helvetica,sans-Serif" font-size="10.00"> #dist</text>
</g>
<!-- Node3 -->
<g id="node3" class="node"><title>Node3</title>
<g id="a_node3"><a xlink:href="classgraph_1_1_parent_array.html" target="_top" xlink:title="{graph::ParentArray\l\&lt; graph::AdjacencyList \&gt;\n||+ getPath()\l+ isKnown()\l+ operator[]()\l}">
<polygon fill="white" stroke="black" points="144,-314.5 144,-404.5 270,-404.5 270,-314.5 144,-314.5"/>
<text text-anchor="start" x="152" y="-392.5" font-family="Helvetica,sans-Serif" font-size="10.00">graph::ParentArray</text>
<text text-anchor="middle" x="207" y="-381.5" font-family="Helvetica,sans-Serif" font-size="10.00">&lt; graph::AdjacencyList &gt;</text>
<polyline fill="none" stroke="black" points="144,-374.5 270,-374.5 "/>
<text text-anchor="middle" x="207" y="-362.5" font-family="Helvetica,sans-Serif" font-size="10.00"> </text>
<polyline fill="none" stroke="black" points="144,-355.5 270,-355.5 "/>
<text text-anchor="start" x="152" y="-343.5" font-family="Helvetica,sans-Serif" font-size="10.00">+ getPath()</text>
<text text-anchor="start" x="152" y="-332.5" font-family="Helvetica,sans-Serif" font-size="10.00">+ isKnown()</text>
<text text-anchor="start" x="152" y="-321.5" font-family="Helvetica,sans-Serif" font-size="10.00">+ operator[]()</text>
</a>
</g>
</g>
<!-- Node3&#45;&gt;Node1 -->
<g id="edge2" class="edge"><title>Node3&#45;&gt;Node1</title>
<path fill="none" stroke="#404040" d="M207,-314.236C207,-291.783 207,-263.292 207,-234.847"/>
<polygon fill="none" stroke="#404040" points="207,-234.677 203,-228.677 207,-222.677 211,-228.677 207,-234.677"/>
<text text-anchor="middle" x="225" y="-244" font-family="Helvetica,sans-Serif" font-size="10.00"> #parent</text>
</g>
<!-- Node4 -->
<g id="node4" class="node"><title>Node4</title>
<g id="a_node4"><a xlink:href="classgraph_1_1_adjacency_list.html" target="_top" xlink:title="class to store adjacency list of a graph ">
<polygon fill="white" stroke="black" points="288,-270.5 288,-448.5 396,-448.5 396,-270.5 288,-270.5"/>
<text text-anchor="start" x="296" y="-436.5" font-family="Helvetica,sans-Serif" font-size="10.00">graph::AdjacencyList</text>
<text text-anchor="middle" x="342" y="-425.5" font-family="Helvetica,sans-Serif" font-size="10.00">&lt; VT, ET &gt;</text>
<polyline fill="none" stroke="black" points="288,-418.5 396,-418.5 "/>
<text text-anchor="middle" x="342" y="-406.5" font-family="Helvetica,sans-Serif" font-size="10.00"> </text>
<polyline fill="none" stroke="black" points="288,-399.5 396,-399.5 "/>
<text text-anchor="start" x="296" y="-387.5" font-family="Helvetica,sans-Serif" font-size="10.00">+ AdjacencyList()</text>
<text text-anchor="start" x="296" y="-376.5" font-family="Helvetica,sans-Serif" font-size="10.00">+ AdjacencyList()</text>
<text text-anchor="start" x="296" y="-365.5" font-family="Helvetica,sans-Serif" font-size="10.00">+ operator=()</text>
<text text-anchor="start" x="296" y="-354.5" font-family="Helvetica,sans-Serif" font-size="10.00">+ ~AdjacencyList()</text>
<text text-anchor="start" x="296" y="-343.5" font-family="Helvetica,sans-Serif" font-size="10.00">+ insertVertex()</text>
<text text-anchor="start" x="296" y="-332.5" font-family="Helvetica,sans-Serif" font-size="10.00">+ removeVertex()</text>
<text text-anchor="start" x="296" y="-321.5" font-family="Helvetica,sans-Serif" font-size="10.00">+ insertEdge()</text>
<text text-anchor="start" x="296" y="-310.5" font-family="Helvetica,sans-Serif" font-size="10.00">+ removeEdge()</text>
<text text-anchor="start" x="296" y="-299.5" font-family="Helvetica,sans-Serif" font-size="10.00">+ begin()</text>
<text text-anchor="start" x="296" y="-288.5" font-family="Helvetica,sans-Serif" font-size="10.00">+ end()</text>
<text text-anchor="start" x="296" y="-277.5" font-family="Helvetica,sans-Serif" font-size="10.00">and 8 more...</text>
</a>
</g>
</g>
<!-- Node4&#45;&gt;Node1 -->
<g id="edge3" class="edge"><title>Node4&#45;&gt;Node1</title>
<path fill="none" stroke="#404040" d="M293.643,-270.383C286.288,-256.98 278.602,-242.975 270.976,-229.079"/>
<polygon fill="none" stroke="#404040" points="270.936,-229.005 264.543,-225.67 265.163,-218.485 271.556,-221.821 270.936,-229.005"/>
<text text-anchor="middle" x="289" y="-244" font-family="Helvetica,sans-Serif" font-size="10.00"> #g</text>
</g>
</g>
</svg>
