<?xml version="1.0" encoding="UTF-8" standalone="no"?>
<!DOCTYPE svg PUBLIC "-//W3C//DTD SVG 1.1//EN"
 "http://www.w3.org/Graphics/SVG/1.1/DTD/svg11.dtd">
<!-- Generated by graphviz version 2.38.0 (20140413.2041)
 -->
<!-- Title: spider::GraphValue Pages: 1 -->
<svg width="244pt" height="475pt"
 viewBox="0.00 0.00 244.00 475.00" xmlns="http://www.w3.org/2000/svg" xmlns:xlink="http://www.w3.org/1999/xlink">
<g id="graph0" class="graph" transform="scale(1 1) rotate(0) translate(4 471)">
<title>spider::GraphValue</title>
<polygon fill="white" stroke="none" points="-4,4 -4,-471 240,-471 240,4 -4,4"/>
<!-- Node1 -->
<g id="node1" class="node"><title>Node1</title>
<polygon fill="#bfbfbf" stroke="black" points="93.5,-0.5 93.5,-145.5 206.5,-145.5 206.5,-0.5 93.5,-0.5"/>
<text text-anchor="middle" x="150" y="-133.5" font-family="Helvetica,sans-Serif" font-size="10.00">spider::GraphValue</text>
<polyline fill="none" stroke="black" points="93.5,-126.5 206.5,-126.5 "/>
<text text-anchor="middle" x="150" y="-114.5" font-family="Helvetica,sans-Serif" font-size="10.00"> </text>
<polyline fill="none" stroke="black" points="93.5,-107.5 206.5,-107.5 "/>
<text text-anchor="start" x="101.5" y="-95.5" font-family="Helvetica,sans-Serif" font-size="10.00">+ GraphValue()</text>
<text text-anchor="start" x="101.5" y="-84.5" font-family="Helvetica,sans-Serif" font-size="10.00">+ GraphValue()</text>
<text text-anchor="start" x="101.5" y="-73.5" font-family="Helvetica,sans-Serif" font-size="10.00">+ show()</text>
<text text-anchor="start" x="101.5" y="-62.5" font-family="Helvetica,sans-Serif" font-size="10.00">+ setVertexAttribute()</text>
<text text-anchor="start" x="101.5" y="-51.5" font-family="Helvetica,sans-Serif" font-size="10.00">+ setVertexAttribute()</text>
<text text-anchor="start" x="101.5" y="-40.5" font-family="Helvetica,sans-Serif" font-size="10.00">+ getVertexAttribute()</text>
<text text-anchor="start" x="101.5" y="-29.5" font-family="Helvetica,sans-Serif" font-size="10.00">+ getGraphAttribs()</text>
<text text-anchor="start" x="101.5" y="-18.5" font-family="Helvetica,sans-Serif" font-size="10.00">+ hasVertexAttribute()</text>
<text text-anchor="start" x="101.5" y="-7.5" font-family="Helvetica,sans-Serif" font-size="10.00">+ hasAttribute()</text>
</g>
<!-- Node2 -->
<g id="node2" class="node"><title>Node2</title>
<g id="a_node2"><a xlink:href="classspider_1_1_value.html" target="_top" xlink:title="Value contains the different datatypes that will be supported by the language. It maps the names of t...">
<polygon fill="white" stroke="black" points="0,-221 0,-344 110,-344 110,-221 0,-221"/>
<text text-anchor="middle" x="55" y="-332" font-family="Helvetica,sans-Serif" font-size="10.00">spider::Value</text>
<polyline fill="none" stroke="black" points="0,-325 110,-325 "/>
<text text-anchor="start" x="8" y="-313" font-family="Helvetica,sans-Serif" font-size="10.00">+ type</text>
<polyline fill="none" stroke="black" points="0,-306 110,-306 "/>
<text text-anchor="start" x="8" y="-294" font-family="Helvetica,sans-Serif" font-size="10.00">+ Value()</text>
<text text-anchor="start" x="8" y="-283" font-family="Helvetica,sans-Serif" font-size="10.00">+ ~Value()</text>
<text text-anchor="start" x="8" y="-272" font-family="Helvetica,sans-Serif" font-size="10.00">+ show()</text>
<text text-anchor="start" x="8" y="-261" font-family="Helvetica,sans-Serif" font-size="10.00">+ read()</text>
<text text-anchor="start" x="8" y="-250" font-family="Helvetica,sans-Serif" font-size="10.00">+ changeCallback()</text>
<text text-anchor="start" x="8" y="-239" font-family="Helvetica,sans-Serif" font-size="10.00">+ NameToTypeMap()</text>
<text text-anchor="start" x="8" y="-228" font-family="Helvetica,sans-Serif" font-size="10.00">+ TypeToNameMap()</text>
</a>
</g>
</g>
<!-- Node2&#45;&gt;Node1 -->
<g id="edge1" class="edge"><title>Node2&#45;&gt;Node1</title>
<path fill="none" stroke="midnightblue" d="M86.982,-211.644C96.7106,-190.395 107.415,-167.015 117.197,-145.649"/>
<polygon fill="none" stroke="midnightblue" points="83.7138,-210.375 82.7333,-220.925 90.0785,-213.289 83.7138,-210.375"/>
</g>
<!-- Node3 -->
<g id="node3" class="node"><title>Node3</title>
<polygon fill="white" stroke="#bfbfbf" points="28.5,-409.5 28.5,-466.5 81.5,-466.5 81.5,-409.5 28.5,-409.5"/>
<text text-anchor="middle" x="55" y="-454.5" font-family="Helvetica,sans-Serif" font-size="10.00">QObject</text>
<polyline fill="none" stroke="#bfbfbf" points="28.5,-447.5 81.5,-447.5 "/>
<text text-anchor="middle" x="55" y="-435.5" font-family="Helvetica,sans-Serif" font-size="10.00"> </text>
<polyline fill="none" stroke="#bfbfbf" points="28.5,-428.5 81.5,-428.5 "/>
<text text-anchor="middle" x="55" y="-416.5" font-family="Helvetica,sans-Serif" font-size="10.00"> </text>
</g>
<!-- Node3&#45;&gt;Node2 -->
<g id="edge2" class="edge"><title>Node3&#45;&gt;Node2</title>
<path fill="none" stroke="midnightblue" d="M55,-398.863C55,-382.35 55,-362.613 55,-344.172"/>
<polygon fill="none" stroke="midnightblue" points="51.5001,-399.202 55,-409.202 58.5001,-399.202 51.5001,-399.202"/>
</g>
<!-- Node4 -->
<g id="node4" class="node"><title>Node4</title>
<g id="a_node4"><a xlink:href="classgraph_1_1_adjacency_list.html" target="_top" xlink:title="class to store adjacency list of a graph ">
<polygon fill="white" stroke="black" points="128,-193.5 128,-371.5 236,-371.5 236,-193.5 128,-193.5"/>
<text text-anchor="start" x="136" y="-359.5" font-family="Helvetica,sans-Serif" font-size="10.00">graph::AdjacencyList</text>
<text text-anchor="middle" x="182" y="-348.5" font-family="Helvetica,sans-Serif" font-size="10.00">&lt; VT, ET &gt;</text>
<polyline fill="none" stroke="black" points="128,-341.5 236,-341.5 "/>
<text text-anchor="middle" x="182" y="-329.5" font-family="Helvetica,sans-Serif" font-size="10.00"> </text>
<polyline fill="none" stroke="black" points="128,-322.5 236,-322.5 "/>
<text text-anchor="start" x="136" y="-310.5" font-family="Helvetica,sans-Serif" font-size="10.00">+ AdjacencyList()</text>
<text text-anchor="start" x="136" y="-299.5" font-family="Helvetica,sans-Serif" font-size="10.00">+ AdjacencyList()</text>
<text text-anchor="start" x="136" y="-288.5" font-family="Helvetica,sans-Serif" font-size="10.00">+ operator=()</text>
<text text-anchor="start" x="136" y="-277.5" font-family="Helvetica,sans-Serif" font-size="10.00">+ ~AdjacencyList()</text>
<text text-anchor="start" x="136" y="-266.5" font-family="Helvetica,sans-Serif" font-size="10.00">+ insertVertex()</text>
<text text-anchor="start" x="136" y="-255.5" font-family="Helvetica,sans-Serif" font-size="10.00">+ removeVertex()</text>
<text text-anchor="start" x="136" y="-244.5" font-family="Helvetica,sans-Serif" font-size="10.00">+ insertEdge()</text>
<text text-anchor="start" x="136" y="-233.5" font-family="Helvetica,sans-Serif" font-size="10.00">+ removeEdge()</text>
<text text-anchor="start" x="136" y="-222.5" font-family="Helvetica,sans-Serif" font-size="10.00">+ begin()</text>
<text text-anchor="start" x="136" y="-211.5" font-family="Helvetica,sans-Serif" font-size="10.00">+ end()</text>
<text text-anchor="start" x="136" y="-200.5" font-family="Helvetica,sans-Serif" font-size="10.00">and 8 more...</text>
</a>
</g>
</g>
<!-- Node4&#45;&gt;Node1 -->
<g id="edge3" class="edge"><title>Node4&#45;&gt;Node1</title>
<path fill="none" stroke="#404040" d="M168.383,-193.2C166.565,-181.412 164.705,-169.35 162.899,-157.644"/>
<polygon fill="none" stroke="#404040" points="162.871,-157.46 158.003,-152.14 161.042,-145.6 165.91,-150.921 162.871,-157.46"/>
<text text-anchor="middle" x="179" y="-167" font-family="Helvetica,sans-Serif" font-size="10.00"> +data</text>
</g>
</g>
</svg>
