<?xml version="1.0" encoding="UTF-8" standalone="no"?>
<!DOCTYPE svg PUBLIC "-//W3C//DTD SVG 1.1//EN"
 "http://www.w3.org/Graphics/SVG/1.1/DTD/svg11.dtd">
<!-- Generated by graphviz version 2.38.0 (20140413.2041)
 -->
<!-- Title: spider::Layout Pages: 1 -->
<svg width="1307pt" height="314pt"
 viewBox="0.00 0.00 1306.50 314.00" xmlns="http://www.w3.org/2000/svg" xmlns:xlink="http://www.w3.org/1999/xlink">
<g id="graph0" class="graph" transform="scale(1 1) rotate(0) translate(4 310)">
<title>spider::Layout</title>
<polygon fill="white" stroke="none" points="-4,4 -4,-310 1302.5,-310 1302.5,4 -4,4"/>
<!-- Node1 -->
<g id="node1" class="node"><title>Node1</title>
<polygon fill="#bfbfbf" stroke="black" points="621.5,-105.5 621.5,-305.5 731.5,-305.5 731.5,-105.5 621.5,-105.5"/>
<text text-anchor="middle" x="676.5" y="-293.5" font-family="Helvetica,sans-Serif" font-size="10.00">spider::Layout</text>
<polyline fill="none" stroke="black" points="621.5,-286.5 731.5,-286.5 "/>
<text text-anchor="start" x="629.5" y="-274.5" font-family="Helvetica,sans-Serif" font-size="10.00"># points</text>
<text text-anchor="start" x="629.5" y="-263.5" font-family="Helvetica,sans-Serif" font-size="10.00"># curves</text>
<text text-anchor="start" x="629.5" y="-252.5" font-family="Helvetica,sans-Serif" font-size="10.00"># hasEdgeData</text>
<text text-anchor="start" x="629.5" y="-241.5" font-family="Helvetica,sans-Serif" font-size="10.00"># g</text>
<polyline fill="none" stroke="black" points="621.5,-234.5 731.5,-234.5 "/>
<text text-anchor="start" x="629.5" y="-222.5" font-family="Helvetica,sans-Serif" font-size="10.00">+ Layout()</text>
<text text-anchor="start" x="629.5" y="-211.5" font-family="Helvetica,sans-Serif" font-size="10.00">+ ~Layout()</text>
<text text-anchor="start" x="629.5" y="-200.5" font-family="Helvetica,sans-Serif" font-size="10.00">+ generate()</text>
<text text-anchor="start" x="629.5" y="-189.5" font-family="Helvetica,sans-Serif" font-size="10.00">+ getVertex()</text>
<text text-anchor="start" x="629.5" y="-178.5" font-family="Helvetica,sans-Serif" font-size="10.00">+ getEdge()</text>
<text text-anchor="start" x="629.5" y="-167.5" font-family="Helvetica,sans-Serif" font-size="10.00">+ getGraph()</text>
<text text-anchor="start" x="629.5" y="-156.5" font-family="Helvetica,sans-Serif" font-size="10.00">+ getGraphValue()</text>
<text text-anchor="start" x="629.5" y="-145.5" font-family="Helvetica,sans-Serif" font-size="10.00">+ getVertexAttribute()</text>
<text text-anchor="start" x="629.5" y="-134.5" font-family="Helvetica,sans-Serif" font-size="10.00">+ getEdgeAttribute()</text>
<text text-anchor="start" x="629.5" y="-123.5" font-family="Helvetica,sans-Serif" font-size="10.00">+ setVertexAttribute()</text>
<text text-anchor="start" x="629.5" y="-112.5" font-family="Helvetica,sans-Serif" font-size="10.00">+ setEdgeAttribute()</text>
</g>
<!-- Node2 -->
<g id="node2" class="node"><title>Node2</title>
<g id="a_node2"><a xlink:href="classspider_1_1_bi_circular_layout.html" target="_top" xlink:title="BiCircular Layout for drawing a graph &#45; The layout has two concentric circles on whose circumference ...">
<polygon fill="white" stroke="black" points="0,-0.5 0,-68.5 121,-68.5 121,-0.5 0,-0.5"/>
<text text-anchor="middle" x="60.5" y="-56.5" font-family="Helvetica,sans-Serif" font-size="10.00">spider::BiCircularLayout</text>
<polyline fill="none" stroke="black" points="0,-49.5 121,-49.5 "/>
<text text-anchor="middle" x="60.5" y="-37.5" font-family="Helvetica,sans-Serif" font-size="10.00"> </text>
<polyline fill="none" stroke="black" points="0,-30.5 121,-30.5 "/>
<text text-anchor="start" x="8" y="-18.5" font-family="Helvetica,sans-Serif" font-size="10.00">+ BiCircularLayout()</text>
<text text-anchor="start" x="8" y="-7.5" font-family="Helvetica,sans-Serif" font-size="10.00">+ generate()</text>
</a>
</g>
</g>
<!-- Node1&#45;&gt;Node2 -->
<g id="edge1" class="edge"><title>Node1&#45;&gt;Node2</title>
<path fill="none" stroke="midnightblue" d="M611.401,-192.956C507.561,-173.53 298.872,-130.328 129.5,-69 126.745,-68.0026 123.955,-66.9292 121.154,-65.8003"/>
<polygon fill="none" stroke="midnightblue" points="610.949,-196.432 621.421,-194.817 612.228,-189.55 610.949,-196.432"/>
</g>
<!-- Node3 -->
<g id="node3" class="node"><title>Node3</title>
<g id="a_node3"><a xlink:href="classspider_1_1_binary_tree_layout.html" target="_top" xlink:title="Tree Layout for drawing a graph &#45; The layout starts at the root and plots the adjacent vertices in th...">
<polygon fill="white" stroke="black" points="139,-0.5 139,-68.5 264,-68.5 264,-0.5 139,-0.5"/>
<text text-anchor="middle" x="201.5" y="-56.5" font-family="Helvetica,sans-Serif" font-size="10.00">spider::BinaryTreeLayout</text>
<polyline fill="none" stroke="black" points="139,-49.5 264,-49.5 "/>
<text text-anchor="middle" x="201.5" y="-37.5" font-family="Helvetica,sans-Serif" font-size="10.00"> </text>
<polyline fill="none" stroke="black" points="139,-30.5 264,-30.5 "/>
<text text-anchor="start" x="147" y="-18.5" font-family="Helvetica,sans-Serif" font-size="10.00">+ BinaryTreeLayout()</text>
<text text-anchor="start" x="147" y="-7.5" font-family="Helvetica,sans-Serif" font-size="10.00">+ generate()</text>
</a>
</g>
</g>
<!-- Node1&#45;&gt;Node3 -->
<g id="edge2" class="edge"><title>Node1&#45;&gt;Node3</title>
<path fill="none" stroke="midnightblue" d="M611.401,-185.06C531.054,-160.51 390.68,-115.792 273.5,-69 270.427,-67.7729 267.298,-66.4815 264.149,-65.1486"/>
<polygon fill="none" stroke="midnightblue" points="610.788,-188.533 621.374,-188.098 612.828,-181.836 610.788,-188.533"/>
</g>
<!-- Node4 -->
<g id="node4" class="node"><title>Node4</title>
<g id="a_node4"><a xlink:href="classspider_1_1_bipartite_layout.html" target="_top" xlink:title="Bipartite Layout for drawing a graph &#45; The layout plots vertices on two sides of an imaginary demarca...">
<polygon fill="white" stroke="black" points="282.5,-0.5 282.5,-68.5 396.5,-68.5 396.5,-0.5 282.5,-0.5"/>
<text text-anchor="middle" x="339.5" y="-56.5" font-family="Helvetica,sans-Serif" font-size="10.00">spider::BipartiteLayout</text>
<polyline fill="none" stroke="black" points="282.5,-49.5 396.5,-49.5 "/>
<text text-anchor="middle" x="339.5" y="-37.5" font-family="Helvetica,sans-Serif" font-size="10.00"> </text>
<polyline fill="none" stroke="black" points="282.5,-30.5 396.5,-30.5 "/>
<text text-anchor="start" x="290.5" y="-18.5" font-family="Helvetica,sans-Serif" font-size="10.00">+ BipartiteLayout()</text>
<text text-anchor="start" x="290.5" y="-7.5" font-family="Helvetica,sans-Serif" font-size="10.00">+ generate()</text>
</a>
</g>
</g>
<!-- Node1&#45;&gt;Node4 -->
<g id="edge3" class="edge"><title>Node1&#45;&gt;Node4</title>
<path fill="none" stroke="midnightblue" d="M612.168,-172.47C557.224,-145.082 476.109,-104.572 405.5,-69 402.631,-67.5547 399.693,-66.0721 396.727,-64.5735"/>
<polygon fill="none" stroke="midnightblue" points="610.922,-175.76 621.434,-177.088 614.045,-169.495 610.922,-175.76"/>
</g>
<!-- Node5 -->
<g id="node5" class="node"><title>Node5</title>
<g id="a_node5"><a xlink:href="classspider_1_1_circular_layout.html" target="_top" xlink:title="Circular Layout for drawing a graph &#45; The layout has a circle on whose circumference the vertex are p...">
<polygon fill="white" stroke="black" points="414.5,-0.5 414.5,-68.5 526.5,-68.5 526.5,-0.5 414.5,-0.5"/>
<text text-anchor="middle" x="470.5" y="-56.5" font-family="Helvetica,sans-Serif" font-size="10.00">spider::CircularLayout</text>
<polyline fill="none" stroke="black" points="414.5,-49.5 526.5,-49.5 "/>
<text text-anchor="middle" x="470.5" y="-37.5" font-family="Helvetica,sans-Serif" font-size="10.00"> </text>
<polyline fill="none" stroke="black" points="414.5,-30.5 526.5,-30.5 "/>
<text text-anchor="start" x="422.5" y="-18.5" font-family="Helvetica,sans-Serif" font-size="10.00">+ CircularLayout()</text>
<text text-anchor="start" x="422.5" y="-7.5" font-family="Helvetica,sans-Serif" font-size="10.00">+ generate()</text>
</a>
</g>
</g>
<!-- Node1&#45;&gt;Node5 -->
<g id="edge4" class="edge"><title>Node1&#45;&gt;Node5</title>
<path fill="none" stroke="midnightblue" d="M613.402,-152.735C580.011,-125.342 540.003,-92.5192 510.823,-68.5804"/>
<polygon fill="none" stroke="midnightblue" points="611.345,-155.574 621.296,-159.211 615.784,-150.163 611.345,-155.574"/>
</g>
<!-- Node6 -->
<g id="node6" class="node"><title>Node6</title>
<g id="a_node6"><a xlink:href="classspider_1_1_force_based_layout.html" target="_top" xlink:title="Force Based Layout for drawing a graph &#45; This layout plots the vertices in two&#45;dimensional or three&#45;d...">
<polygon fill="white" stroke="black" points="545,-0.5 545,-68.5 676,-68.5 676,-0.5 545,-0.5"/>
<text text-anchor="middle" x="610.5" y="-56.5" font-family="Helvetica,sans-Serif" font-size="10.00">spider::ForceBasedLayout</text>
<polyline fill="none" stroke="black" points="545,-49.5 676,-49.5 "/>
<text text-anchor="middle" x="610.5" y="-37.5" font-family="Helvetica,sans-Serif" font-size="10.00"> </text>
<polyline fill="none" stroke="black" points="545,-30.5 676,-30.5 "/>
<text text-anchor="start" x="553" y="-18.5" font-family="Helvetica,sans-Serif" font-size="10.00">+ ForceBasedLayout()</text>
<text text-anchor="start" x="553" y="-7.5" font-family="Helvetica,sans-Serif" font-size="10.00">+ generate()</text>
</a>
</g>
</g>
<!-- Node1&#45;&gt;Node6 -->
<g id="edge5" class="edge"><title>Node1&#45;&gt;Node6</title>
<path fill="none" stroke="midnightblue" d="M634.056,-95.8179C630.279,-86.1454 626.682,-76.9345 623.487,-68.7534"/>
<polygon fill="none" stroke="midnightblue" points="630.828,-97.1728 637.726,-105.214 637.348,-94.6264 630.828,-97.1728"/>
</g>
<!-- Node7 -->
<g id="node7" class="node"><title>Node7</title>
<g id="a_node7"><a xlink:href="classspider_1_1_grid_layout.html" target="_top" xlink:title="Grid Layout for drawing a graph. The layout plots the vertices at equal distance from all adjacent ve...">
<polygon fill="white" stroke="black" points="694.5,-0.5 694.5,-68.5 790.5,-68.5 790.5,-0.5 694.5,-0.5"/>
<text text-anchor="middle" x="742.5" y="-56.5" font-family="Helvetica,sans-Serif" font-size="10.00">spider::GridLayout</text>
<polyline fill="none" stroke="black" points="694.5,-49.5 790.5,-49.5 "/>
<text text-anchor="middle" x="742.5" y="-37.5" font-family="Helvetica,sans-Serif" font-size="10.00"> </text>
<polyline fill="none" stroke="black" points="694.5,-30.5 790.5,-30.5 "/>
<text text-anchor="start" x="702.5" y="-18.5" font-family="Helvetica,sans-Serif" font-size="10.00">+ GridLayout()</text>
<text text-anchor="start" x="702.5" y="-7.5" font-family="Helvetica,sans-Serif" font-size="10.00">+ generate()</text>
</a>
</g>
</g>
<!-- Node1&#45;&gt;Node7 -->
<g id="edge6" class="edge"><title>Node1&#45;&gt;Node7</title>
<path fill="none" stroke="midnightblue" d="M718.944,-95.8179C722.721,-86.1454 726.318,-76.9345 729.513,-68.7534"/>
<polygon fill="none" stroke="midnightblue" points="715.652,-94.6264 715.274,-105.214 722.172,-97.1728 715.652,-94.6264"/>
</g>
<!-- Node8 -->
<g id="node8" class="node"><title>Node8</title>
<g id="a_node8"><a xlink:href="classspider_1_1_linear_layout.html" target="_top" xlink:title="Linear Layout for drawing a graph. The layout plots the vertices along a straight line at equal dista...">
<polygon fill="white" stroke="black" points="808.5,-0.5 808.5,-68.5 912.5,-68.5 912.5,-0.5 808.5,-0.5"/>
<text text-anchor="middle" x="860.5" y="-56.5" font-family="Helvetica,sans-Serif" font-size="10.00">spider::LinearLayout</text>
<polyline fill="none" stroke="black" points="808.5,-49.5 912.5,-49.5 "/>
<text text-anchor="middle" x="860.5" y="-37.5" font-family="Helvetica,sans-Serif" font-size="10.00"> </text>
<polyline fill="none" stroke="black" points="808.5,-30.5 912.5,-30.5 "/>
<text text-anchor="start" x="816.5" y="-18.5" font-family="Helvetica,sans-Serif" font-size="10.00">+ LinearLayout()</text>
<text text-anchor="start" x="816.5" y="-7.5" font-family="Helvetica,sans-Serif" font-size="10.00">+ generate()</text>
</a>
</g>
</g>
<!-- Node1&#45;&gt;Node8 -->
<g id="edge7" class="edge"><title>Node1&#45;&gt;Node8</title>
<path fill="none" stroke="midnightblue" d="M739.222,-146.891C767.664,-120.768 800.274,-90.8163 824.511,-68.5552"/>
<polygon fill="none" stroke="midnightblue" points="736.703,-144.452 731.706,-153.794 741.439,-149.608 736.703,-144.452"/>
</g>
<!-- Node9 -->
<g id="node9" class="node"><title>Node9</title>
<g id="a_node9"><a xlink:href="classspider_1_1_n_circular_layout.html" target="_top" xlink:title="NCircular Layout for drawing a graph &#45; The layout has N number of concentric circles on whose circumf...">
<polygon fill="white" stroke="black" points="931,-0.5 931,-68.5 1050,-68.5 1050,-0.5 931,-0.5"/>
<text text-anchor="middle" x="990.5" y="-56.5" font-family="Helvetica,sans-Serif" font-size="10.00">spider::NCircularLayout</text>
<polyline fill="none" stroke="black" points="931,-49.5 1050,-49.5 "/>
<text text-anchor="middle" x="990.5" y="-37.5" font-family="Helvetica,sans-Serif" font-size="10.00"> </text>
<polyline fill="none" stroke="black" points="931,-30.5 1050,-30.5 "/>
<text text-anchor="start" x="939" y="-18.5" font-family="Helvetica,sans-Serif" font-size="10.00">+ NCircularLayout()</text>
<text text-anchor="start" x="939" y="-7.5" font-family="Helvetica,sans-Serif" font-size="10.00">+ generate()</text>
</a>
</g>
</g>
<!-- Node1&#45;&gt;Node9 -->
<g id="edge8" class="edge"><title>Node1&#45;&gt;Node9</title>
<path fill="none" stroke="midnightblue" d="M740.633,-169.983C796.405,-139.965 876.586,-96.8105 930.962,-67.5444"/>
<polygon fill="none" stroke="midnightblue" points="738.701,-167.048 731.554,-174.869 742.018,-173.212 738.701,-167.048"/>
</g>
<!-- Node10 -->
<g id="node10" class="node"><title>Node10</title>
<g id="a_node10"><a xlink:href="classspider_1_1_random_layout.html" target="_top" xlink:title="Random Layout for drawing a graph &#45; This layout plots the vertices randomly. ">
<polygon fill="white" stroke="black" points="1068,-0.5 1068,-68.5 1183,-68.5 1183,-0.5 1068,-0.5"/>
<text text-anchor="middle" x="1125.5" y="-56.5" font-family="Helvetica,sans-Serif" font-size="10.00">spider::RandomLayout</text>
<polyline fill="none" stroke="black" points="1068,-49.5 1183,-49.5 "/>
<text text-anchor="middle" x="1125.5" y="-37.5" font-family="Helvetica,sans-Serif" font-size="10.00"> </text>
<polyline fill="none" stroke="black" points="1068,-30.5 1183,-30.5 "/>
<text text-anchor="start" x="1076" y="-18.5" font-family="Helvetica,sans-Serif" font-size="10.00">+ RandomLayout()</text>
<text text-anchor="start" x="1076" y="-7.5" font-family="Helvetica,sans-Serif" font-size="10.00">+ generate()</text>
</a>
</g>
</g>
<!-- Node1&#45;&gt;Node10 -->
<g id="edge9" class="edge"><title>Node1&#45;&gt;Node10</title>
<path fill="none" stroke="midnightblue" d="M741.147,-184.466C818.086,-159.975 949.924,-115.958 1059.5,-69 1062.22,-67.8359 1064.98,-66.6105 1067.75,-65.3443"/>
<polygon fill="none" stroke="midnightblue" points="740.056,-181.14 731.583,-187.499 742.173,-187.812 740.056,-181.14"/>
</g>
<!-- Node11 -->
<g id="node11" class="node"><title>Node11</title>
<g id="a_node11"><a xlink:href="classspider_1_1_tree_layout.html" target="_top" xlink:title="Tree Layout for drawing a graph. The layout starts at the root and plots the adjacent vertices in the...">
<polygon fill="white" stroke="black" points="1200.5,-0.5 1200.5,-68.5 1298.5,-68.5 1298.5,-0.5 1200.5,-0.5"/>
<text text-anchor="middle" x="1249.5" y="-56.5" font-family="Helvetica,sans-Serif" font-size="10.00">spider::TreeLayout</text>
<polyline fill="none" stroke="black" points="1200.5,-49.5 1298.5,-49.5 "/>
<text text-anchor="middle" x="1249.5" y="-37.5" font-family="Helvetica,sans-Serif" font-size="10.00"> </text>
<polyline fill="none" stroke="black" points="1200.5,-30.5 1298.5,-30.5 "/>
<text text-anchor="start" x="1208.5" y="-18.5" font-family="Helvetica,sans-Serif" font-size="10.00">+ TreeLayout()</text>
<text text-anchor="start" x="1208.5" y="-7.5" font-family="Helvetica,sans-Serif" font-size="10.00">+ generate()</text>
</a>
</g>
</g>
<!-- Node1&#45;&gt;Node11 -->
<g id="edge10" class="edge"><title>Node1&#45;&gt;Node11</title>
<path fill="none" stroke="midnightblue" d="M741.507,-193.377C841.195,-175.013 1036.64,-133.808 1192.5,-69 1195.15,-67.8982 1197.83,-66.6922 1200.5,-65.4127"/>
<polygon fill="none" stroke="midnightblue" points="740.79,-189.95 731.581,-195.188 742.046,-196.836 740.79,-189.95"/>
</g>
</g>
</svg>
