<?xml version="1.0" encoding="UTF-8" standalone="no"?>
<!DOCTYPE svg PUBLIC "-//W3C//DTD SVG 1.1//EN"
 "http://www.w3.org/Graphics/SVG/1.1/DTD/svg11.dtd">
<!-- Generated by graphviz version 2.38.0 (20140413.2041)
 -->
<!-- Title: spider::WindowValue Pages: 1 -->
<svg width="242pt" height="332pt"
 viewBox="0.00 0.00 241.50 332.00" xmlns="http://www.w3.org/2000/svg" xmlns:xlink="http://www.w3.org/1999/xlink">
<g id="graph0" class="graph" transform="scale(1 1) rotate(0) translate(4 328)">
<title>spider::WindowValue</title>
<polygon fill="white" stroke="none" points="-4,4 -4,-328 237.5,-328 237.5,4 -4,4"/>
<!-- Node1 -->
<g id="node1" class="node"><title>Node1</title>
<polygon fill="#bfbfbf" stroke="black" points="74.5,-0.5 74.5,-57.5 183.5,-57.5 183.5,-0.5 74.5,-0.5"/>
<text text-anchor="middle" x="129" y="-45.5" font-family="Helvetica,sans-Serif" font-size="10.00">spider::WindowValue</text>
<polyline fill="none" stroke="black" points="74.5,-38.5 183.5,-38.5 "/>
<text text-anchor="middle" x="129" y="-26.5" font-family="Helvetica,sans-Serif" font-size="10.00"> </text>
<polyline fill="none" stroke="black" points="74.5,-19.5 183.5,-19.5 "/>
<text text-anchor="start" x="82.5" y="-7.5" font-family="Helvetica,sans-Serif" font-size="10.00">+ WindowValue()</text>
</g>
<!-- Node2 -->
<g id="node2" class="node"><title>Node2</title>
<g id="a_node2"><a xlink:href="classspider_1_1_value.html" target="_top" xlink:title="Value contains the different datatypes that will be supported by the language. It maps the names of t...">
<polygon fill="white" stroke="black" points="0,-105.5 0,-228.5 110,-228.5 110,-105.5 0,-105.5"/>
<text text-anchor="middle" x="55" y="-216.5" font-family="Helvetica,sans-Serif" font-size="10.00">spider::Value</text>
<polyline fill="none" stroke="black" points="0,-209.5 110,-209.5 "/>
<text text-anchor="start" x="8" y="-197.5" font-family="Helvetica,sans-Serif" font-size="10.00">+ type</text>
<polyline fill="none" stroke="black" points="0,-190.5 110,-190.5 "/>
<text text-anchor="start" x="8" y="-178.5" font-family="Helvetica,sans-Serif" font-size="10.00">+ Value()</text>
<text text-anchor="start" x="8" y="-167.5" font-family="Helvetica,sans-Serif" font-size="10.00">+ ~Value()</text>
<text text-anchor="start" x="8" y="-156.5" font-family="Helvetica,sans-Serif" font-size="10.00">+ show()</text>
<text text-anchor="start" x="8" y="-145.5" font-family="Helvetica,sans-Serif" font-size="10.00">+ read()</text>
<text text-anchor="start" x="8" y="-134.5" font-family="Helvetica,sans-Serif" font-size="10.00">+ changeCallback()</text>
<text text-anchor="start" x="8" y="-123.5" font-family="Helvetica,sans-Serif" font-size="10.00">+ NameToTypeMap()</text>
<text text-anchor="start" x="8" y="-112.5" font-family="Helvetica,sans-Serif" font-size="10.00">+ TypeToNameMap()</text>
</a>
</g>
</g>
<!-- Node2&#45;&gt;Node1 -->
<g id="edge1" class="edge"><title>Node2&#45;&gt;Node1</title>
<path fill="none" stroke="midnightblue" d="M92.9758,-96.2066C100.397,-82.5676 107.766,-69.025 113.887,-57.7753"/>
<polygon fill="none" stroke="midnightblue" points="89.8092,-94.7033 88.1041,-105.16 95.958,-98.049 89.8092,-94.7033"/>
</g>
<!-- Node3 -->
<g id="node3" class="node"><title>Node3</title>
<polygon fill="white" stroke="#bfbfbf" points="28.5,-266.5 28.5,-323.5 81.5,-323.5 81.5,-266.5 28.5,-266.5"/>
<text text-anchor="middle" x="55" y="-311.5" font-family="Helvetica,sans-Serif" font-size="10.00">QObject</text>
<polyline fill="none" stroke="#bfbfbf" points="28.5,-304.5 81.5,-304.5 "/>
<text text-anchor="middle" x="55" y="-292.5" font-family="Helvetica,sans-Serif" font-size="10.00"> </text>
<polyline fill="none" stroke="#bfbfbf" points="28.5,-285.5 81.5,-285.5 "/>
<text text-anchor="middle" x="55" y="-273.5" font-family="Helvetica,sans-Serif" font-size="10.00"> </text>
</g>
<!-- Node3&#45;&gt;Node2 -->
<g id="edge2" class="edge"><title>Node3&#45;&gt;Node2</title>
<path fill="none" stroke="midnightblue" d="M55,-256.182C55,-247.491 55,-238.033 55,-228.646"/>
<polygon fill="none" stroke="midnightblue" points="51.5001,-256.349 55,-266.349 58.5001,-256.349 51.5001,-256.349"/>
</g>
<!-- Node4 -->
<g id="node4" class="node"><title>Node4</title>
<g id="a_node4"><a xlink:href="classspider_1_1_window_u_i.html" target="_top" xlink:title="Class to control and display the different components of visualization window. ">
<polygon fill="white" stroke="black" points="128.5,-105.5 128.5,-228.5 233.5,-228.5 233.5,-105.5 128.5,-105.5"/>
<text text-anchor="middle" x="181" y="-216.5" font-family="Helvetica,sans-Serif" font-size="10.00">spider::WindowUI</text>
<polyline fill="none" stroke="black" points="128.5,-209.5 233.5,-209.5 "/>
<text text-anchor="middle" x="181" y="-197.5" font-family="Helvetica,sans-Serif" font-size="10.00"> </text>
<polyline fill="none" stroke="black" points="128.5,-190.5 233.5,-190.5 "/>
<text text-anchor="start" x="136.5" y="-178.5" font-family="Helvetica,sans-Serif" font-size="10.00">+ WindowUI()</text>
<text text-anchor="start" x="136.5" y="-167.5" font-family="Helvetica,sans-Serif" font-size="10.00">+ changeLayout()</text>
<text text-anchor="start" x="136.5" y="-156.5" font-family="Helvetica,sans-Serif" font-size="10.00">+ isOpen()</text>
<text text-anchor="start" x="136.5" y="-145.5" font-family="Helvetica,sans-Serif" font-size="10.00">+ getGraph()</text>
<text text-anchor="start" x="136.5" y="-134.5" font-family="Helvetica,sans-Serif" font-size="10.00">+ eventFilter()</text>
<text text-anchor="start" x="136.5" y="-123.5" font-family="Helvetica,sans-Serif" font-size="10.00">+ getLayoutPainter()</text>
<text text-anchor="start" x="136.5" y="-112.5" font-family="Helvetica,sans-Serif" font-size="10.00">+ changeCallback()</text>
</a>
</g>
</g>
<!-- Node4&#45;&gt;Node1 -->
<g id="edge3" class="edge"><title>Node4&#45;&gt;Node1</title>
<path fill="none" stroke="#404040" d="M157.738,-105.16C153.041,-92.8773 148.224,-80.2794 143.909,-68.9934"/>
<polygon fill="none" stroke="#404040" points="143.906,-68.984 138.027,-64.8082 139.62,-57.7753 145.499,-61.9511 143.906,-68.984"/>
<text text-anchor="middle" x="165" y="-79" font-family="Helvetica,sans-Serif" font-size="10.00"> +data</text>
</g>
<!-- Node5 -->
<g id="node5" class="node"><title>Node5</title>
<polygon fill="white" stroke="#bfbfbf" points="153.5,-266.5 153.5,-323.5 208.5,-323.5 208.5,-266.5 153.5,-266.5"/>
<text text-anchor="middle" x="181" y="-311.5" font-family="Helvetica,sans-Serif" font-size="10.00">QWidget</text>
<polyline fill="none" stroke="#bfbfbf" points="153.5,-304.5 208.5,-304.5 "/>
<text text-anchor="middle" x="181" y="-292.5" font-family="Helvetica,sans-Serif" font-size="10.00"> </text>
<polyline fill="none" stroke="#bfbfbf" points="153.5,-285.5 208.5,-285.5 "/>
<text text-anchor="middle" x="181" y="-273.5" font-family="Helvetica,sans-Serif" font-size="10.00"> </text>
</g>
<!-- Node5&#45;&gt;Node4 -->
<g id="edge4" class="edge"><title>Node5&#45;&gt;Node4</title>
<path fill="none" stroke="midnightblue" d="M181,-256.182C181,-247.491 181,-238.033 181,-228.646"/>
<polygon fill="none" stroke="midnightblue" points="177.5,-256.349 181,-266.349 184.5,-256.349 177.5,-256.349"/>
</g>
</g>
</svg>
