<?xml version="1.0" encoding="UTF-8" standalone="no"?>
<!DOCTYPE svg PUBLIC "-//W3C//DTD SVG 1.1//EN"
 "http://www.w3.org/Graphics/SVG/1.1/DTD/svg11.dtd">
<!-- Generated by graphviz version 2.38.0 (20140413.2041)
 -->
<!-- Title: spider::UserDefinedFunction Pages: 1 -->
<svg width="149pt" height="458pt"
 viewBox="0.00 0.00 149.00 458.00" xmlns="http://www.w3.org/2000/svg" xmlns:xlink="http://www.w3.org/1999/xlink">
<g id="graph0" class="graph" transform="scale(1 1) rotate(0) translate(4 454)">
<title>spider::UserDefinedFunction</title>
<polygon fill="white" stroke="none" points="-4,4 -4,-454 145,-454 145,4 -4,4"/>
<!-- Node1 -->
<g id="node1" class="node"><title>Node1</title>
<polygon fill="#bfbfbf" stroke="black" points="0,-0.5 0,-68.5 141,-68.5 141,-0.5 0,-0.5"/>
<text text-anchor="middle" x="70.5" y="-56.5" font-family="Helvetica,sans-Serif" font-size="10.00">spider::UserDefinedFunction</text>
<polyline fill="none" stroke="black" points="0,-49.5 141,-49.5 "/>
<text text-anchor="middle" x="70.5" y="-37.5" font-family="Helvetica,sans-Serif" font-size="10.00"> </text>
<polyline fill="none" stroke="black" points="0,-30.5 141,-30.5 "/>
<text text-anchor="start" x="8" y="-18.5" font-family="Helvetica,sans-Serif" font-size="10.00">+ UserDefinedFunction()</text>
<text text-anchor="start" x="8" y="-7.5" font-family="Helvetica,sans-Serif" font-size="10.00">+ call()</text>
</g>
<!-- Node2 -->
<g id="node2" class="node"><title>Node2</title>
<g id="a_node2"><a xlink:href="classspider_1_1_function_value.html" target="_top" xlink:title="{spider::FunctionValue\n||+ FunctionValue()\l+ call()\l+ show()\l+ getName()\l}">
<polygon fill="white" stroke="black" points="15,-105.5 15,-195.5 126,-195.5 126,-105.5 15,-105.5"/>
<text text-anchor="middle" x="70.5" y="-183.5" font-family="Helvetica,sans-Serif" font-size="10.00">spider::FunctionValue</text>
<polyline fill="none" stroke="black" points="15,-176.5 126,-176.5 "/>
<text text-anchor="middle" x="70.5" y="-164.5" font-family="Helvetica,sans-Serif" font-size="10.00"> </text>
<polyline fill="none" stroke="black" points="15,-157.5 126,-157.5 "/>
<text text-anchor="start" x="23" y="-145.5" font-family="Helvetica,sans-Serif" font-size="10.00">+ FunctionValue()</text>
<text text-anchor="start" x="23" y="-134.5" font-family="Helvetica,sans-Serif" font-size="10.00">+ call()</text>
<text text-anchor="start" x="23" y="-123.5" font-family="Helvetica,sans-Serif" font-size="10.00">+ show()</text>
<text text-anchor="start" x="23" y="-112.5" font-family="Helvetica,sans-Serif" font-size="10.00">+ getName()</text>
</a>
</g>
</g>
<!-- Node2&#45;&gt;Node1 -->
<g id="edge1" class="edge"><title>Node2&#45;&gt;Node1</title>
<path fill="none" stroke="midnightblue" d="M70.5,-95.3164C70.5,-86.2849 70.5,-77.1589 70.5,-68.8483"/>
<polygon fill="none" stroke="midnightblue" points="67.0001,-95.4246 70.5,-105.425 74.0001,-95.4247 67.0001,-95.4246"/>
</g>
<!-- Node3 -->
<g id="node3" class="node"><title>Node3</title>
<g id="a_node3"><a xlink:href="classspider_1_1_value.html" target="_top" xlink:title="Value contains the different datatypes that will be supported by the language. It maps the names of t...">
<polygon fill="white" stroke="black" points="15.5,-232.5 15.5,-355.5 125.5,-355.5 125.5,-232.5 15.5,-232.5"/>
<text text-anchor="middle" x="70.5" y="-343.5" font-family="Helvetica,sans-Serif" font-size="10.00">spider::Value</text>
<polyline fill="none" stroke="black" points="15.5,-336.5 125.5,-336.5 "/>
<text text-anchor="start" x="23.5" y="-324.5" font-family="Helvetica,sans-Serif" font-size="10.00">+ type</text>
<polyline fill="none" stroke="black" points="15.5,-317.5 125.5,-317.5 "/>
<text text-anchor="start" x="23.5" y="-305.5" font-family="Helvetica,sans-Serif" font-size="10.00">+ Value()</text>
<text text-anchor="start" x="23.5" y="-294.5" font-family="Helvetica,sans-Serif" font-size="10.00">+ ~Value()</text>
<text text-anchor="start" x="23.5" y="-283.5" font-family="Helvetica,sans-Serif" font-size="10.00">+ show()</text>
<text text-anchor="start" x="23.5" y="-272.5" font-family="Helvetica,sans-Serif" font-size="10.00">+ read()</text>
<text text-anchor="start" x="23.5" y="-261.5" font-family="Helvetica,sans-Serif" font-size="10.00">+ changeCallback()</text>
<text text-anchor="start" x="23.5" y="-250.5" font-family="Helvetica,sans-Serif" font-size="10.00">+ NameToTypeMap()</text>
<text text-anchor="start" x="23.5" y="-239.5" font-family="Helvetica,sans-Serif" font-size="10.00">+ TypeToNameMap()</text>
</a>
</g>
</g>
<!-- Node3&#45;&gt;Node2 -->
<g id="edge2" class="edge"><title>Node3&#45;&gt;Node2</title>
<path fill="none" stroke="midnightblue" d="M70.5,-222.033C70.5,-213.028 70.5,-204.028 70.5,-195.617"/>
<polygon fill="none" stroke="midnightblue" points="67.0001,-222.17 70.5,-232.17 74.0001,-222.17 67.0001,-222.17"/>
</g>
<!-- Node4 -->
<g id="node4" class="node"><title>Node4</title>
<polygon fill="white" stroke="#bfbfbf" points="44,-392.5 44,-449.5 97,-449.5 97,-392.5 44,-392.5"/>
<text text-anchor="middle" x="70.5" y="-437.5" font-family="Helvetica,sans-Serif" font-size="10.00">QObject</text>
<polyline fill="none" stroke="#bfbfbf" points="44,-430.5 97,-430.5 "/>
<text text-anchor="middle" x="70.5" y="-418.5" font-family="Helvetica,sans-Serif" font-size="10.00"> </text>
<polyline fill="none" stroke="#bfbfbf" points="44,-411.5 97,-411.5 "/>
<text text-anchor="middle" x="70.5" y="-399.5" font-family="Helvetica,sans-Serif" font-size="10.00"> </text>
</g>
<!-- Node4&#45;&gt;Node3 -->
<g id="edge3" class="edge"><title>Node4&#45;&gt;Node3</title>
<path fill="none" stroke="midnightblue" d="M70.5,-382.099C70.5,-373.739 70.5,-364.68 70.5,-355.672"/>
<polygon fill="none" stroke="midnightblue" points="67.0001,-382.258 70.5,-392.258 74.0001,-382.258 67.0001,-382.258"/>
</g>
</g>
</svg>
