<?xml version="1.0" encoding="UTF-8" standalone="no"?>
<!DOCTYPE svg PUBLIC "-//W3C//DTD SVG 1.1//EN"
 "http://www.w3.org/Graphics/SVG/1.1/DTD/svg11.dtd">
<!-- Generated by graphviz version 2.38.0 (20140413.2041)
 -->
<!-- Title: spider::FunctionValue Pages: 1 -->
<!--zoomable 458 -->
<svg id="main" version="1.1" xmlns="http://www.w3.org/2000/svg" xmlns:xlink="http://www.w3.org/1999/xlink" xml:space="preserve" onload="init(evt)">
<style type="text/css"><![CDATA[
.edge:hover path { stroke: red; }
.edge:hover polygon { stroke: red; fill: red; }
]]></style>
<script type="text/javascript"><![CDATA[
var edges = document.getElementsByTagName('g');
if (edges && edges.length) {
  for (var i=0;i<edges.length;i++) {
    if (edges[i].id.substr(0,4)=='edge') {
      edges[i].setAttribute('class','edge');
    }
  }
}
]]></script>
        <defs>
                <circle id="rim" cx="0" cy="0" r="7"/>
                <circle id="rim2" cx="0" cy="0" r="3.5"/>
                <g id="zoomPlus">
                        <use xlink:href="#rim" fill="#404040">
                                <set attributeName="fill" to="#808080" begin="zoomplus.mouseover" end="zoomplus.mouseout"/>
                        </use>
                        <path d="M-4,0h8M0,-4v8" fill="none" stroke="white" stroke-width="1.5" pointer-events="none"/>
                </g>
                <g id="zoomMin">
                        <use xlink:href="#rim" fill="#404040">
                                <set attributeName="fill" to="#808080" begin="zoomminus.mouseover" end="zoomminus.mouseout"/>
                        </use>
                        <path d="M-4,0h8" fill="none" stroke="white" stroke-width="1.5" pointer-events="none"/>
                </g>
                <g id="dirArrow">
                        <path fill="none" stroke="white" stroke-width="1.5" d="M0,-3.0v7 M-2.5,-0.5L0,-3.0L2.5,-0.5"/>
                </g>
               <g id="resetDef">
                       <use xlink:href="#rim2" fill="#404040">
                               <set attributeName="fill" to="#808080" begin="reset.mouseover" end="reset.mouseout"/>
                       </use>
               </g>
        </defs>

<script type="text/javascript">
var viewWidth = 280;
var viewHeight = 458;
var sectionId = 'dynsection-0';
</script>
<script xlink:href="svgpan.js"/>
<svg id="graph" class="graph">
<g id="viewport">
<title>spider::FunctionValue</title>
<polygon fill="white" stroke="none" points="-4,4 -4,-454 276,-454 276,4 -4,4"/>
<!-- Node1 -->
<g id="node1" class="node"><title>Node1</title>
<polygon fill="#bfbfbf" stroke="black" points="73,-105.5 73,-195.5 184,-195.5 184,-105.5 73,-105.5"/>
<text text-anchor="middle" x="128.5" y="-183.5" font-family="Helvetica,sans-Serif" font-size="10.00">spider::FunctionValue</text>
<polyline fill="none" stroke="black" points="73,-176.5 184,-176.5 "/>
<text text-anchor="middle" x="128.5" y="-164.5" font-family="Helvetica,sans-Serif" font-size="10.00"> </text>
<polyline fill="none" stroke="black" points="73,-157.5 184,-157.5 "/>
<text text-anchor="start" x="81" y="-145.5" font-family="Helvetica,sans-Serif" font-size="10.00">+ FunctionValue()</text>
<text text-anchor="start" x="81" y="-134.5" font-family="Helvetica,sans-Serif" font-size="10.00">+ call()</text>
<text text-anchor="start" x="81" y="-123.5" font-family="Helvetica,sans-Serif" font-size="10.00">+ show()</text>
<text text-anchor="start" x="81" y="-112.5" font-family="Helvetica,sans-Serif" font-size="10.00">+ getName()</text>
</g>
<!-- Node4 -->
<g id="node4" class="node"><title>Node4</title>
<g id="a_node4"><a xlink:href="classspider_1_1_inbuilt_function.html" target="_top" xlink:title="{spider::InbuiltFunction\n||+ InbuiltFunction()\l+ call()\l}">
<polygon fill="white" stroke="black" points="0,-0.5 0,-68.5 113,-68.5 113,-0.5 0,-0.5"/>
<text text-anchor="middle" x="56.5" y="-56.5" font-family="Helvetica,sans-Serif" font-size="10.00">spider::InbuiltFunction</text>
<polyline fill="none" stroke="black" points="0,-49.5 113,-49.5 "/>
<text text-anchor="middle" x="56.5" y="-37.5" font-family="Helvetica,sans-Serif" font-size="10.00"> </text>
<polyline fill="none" stroke="black" points="0,-30.5 113,-30.5 "/>
<text text-anchor="start" x="8" y="-18.5" font-family="Helvetica,sans-Serif" font-size="10.00">+ InbuiltFunction()</text>
<text text-anchor="start" x="8" y="-7.5" font-family="Helvetica,sans-Serif" font-size="10.00">+ call()</text>
</a>
</g>
</g>
<!-- Node1&#45;&gt;Node4 -->
<g id="edge3" class="edge"><title>Node1&#45;&gt;Node4</title>
<path fill="none" stroke="midnightblue" d="M95.1982,-96.7722C89.1959,-87.2686 83.0931,-77.6057 77.5621,-68.8483"/>
<polygon fill="none" stroke="midnightblue" points="92.3637,-98.8387 100.663,-105.425 98.2822,-95.1007 92.3637,-98.8387"/>
</g>
<!-- Node5 -->
<g id="node5" class="node"><title>Node5</title>
<g id="a_node5"><a xlink:href="classspider_1_1_user_defined_function.html" target="_top" xlink:title="{spider::UserDefinedFunction\n||+ UserDefinedFunction()\l+ call()\l}">
<polygon fill="white" stroke="black" points="131,-0.5 131,-68.5 272,-68.5 272,-0.5 131,-0.5"/>
<text text-anchor="middle" x="201.5" y="-56.5" font-family="Helvetica,sans-Serif" font-size="10.00">spider::UserDefinedFunction</text>
<polyline fill="none" stroke="black" points="131,-49.5 272,-49.5 "/>
<text text-anchor="middle" x="201.5" y="-37.5" font-family="Helvetica,sans-Serif" font-size="10.00"> </text>
<polyline fill="none" stroke="black" points="131,-30.5 272,-30.5 "/>
<text text-anchor="start" x="139" y="-18.5" font-family="Helvetica,sans-Serif" font-size="10.00">+ UserDefinedFunction()</text>
<text text-anchor="start" x="139" y="-7.5" font-family="Helvetica,sans-Serif" font-size="10.00">+ call()</text>
</a>
</g>
</g>
<!-- Node1&#45;&gt;Node5 -->
<g id="edge4" class="edge"><title>Node1&#45;&gt;Node5</title>
<path fill="none" stroke="midnightblue" d="M162.264,-96.7722C168.35,-87.2686 174.538,-77.6057 180.145,-68.8483"/>
<polygon fill="none" stroke="midnightblue" points="159.169,-95.1158 156.724,-105.425 165.064,-98.8907 159.169,-95.1158"/>
</g>
<!-- Node2 -->
<g id="node2" class="node"><title>Node2</title>
<g id="a_node2"><a xlink:href="classspider_1_1_value.html" target="_top" xlink:title="Value contains the different datatypes that will be supported by the language. It maps the names of t...">
<polygon fill="white" stroke="black" points="73.5,-232.5 73.5,-355.5 183.5,-355.5 183.5,-232.5 73.5,-232.5"/>
<text text-anchor="middle" x="128.5" y="-343.5" font-family="Helvetica,sans-Serif" font-size="10.00">spider::Value</text>
<polyline fill="none" stroke="black" points="73.5,-336.5 183.5,-336.5 "/>
<text text-anchor="start" x="81.5" y="-324.5" font-family="Helvetica,sans-Serif" font-size="10.00">+ type</text>
<polyline fill="none" stroke="black" points="73.5,-317.5 183.5,-317.5 "/>
<text text-anchor="start" x="81.5" y="-305.5" font-family="Helvetica,sans-Serif" font-size="10.00">+ Value()</text>
<text text-anchor="start" x="81.5" y="-294.5" font-family="Helvetica,sans-Serif" font-size="10.00">+ ~Value()</text>
<text text-anchor="start" x="81.5" y="-283.5" font-family="Helvetica,sans-Serif" font-size="10.00">+ show()</text>
<text text-anchor="start" x="81.5" y="-272.5" font-family="Helvetica,sans-Serif" font-size="10.00">+ read()</text>
<text text-anchor="start" x="81.5" y="-261.5" font-family="Helvetica,sans-Serif" font-size="10.00">+ changeCallback()</text>
<text text-anchor="start" x="81.5" y="-250.5" font-family="Helvetica,sans-Serif" font-size="10.00">+ NameToTypeMap()</text>
<text text-anchor="start" x="81.5" y="-239.5" font-family="Helvetica,sans-Serif" font-size="10.00">+ TypeToNameMap()</text>
</a>
</g>
</g>
<!-- Node2&#45;&gt;Node1 -->
<g id="edge1" class="edge"><title>Node2&#45;&gt;Node1</title>
<path fill="none" stroke="midnightblue" d="M128.5,-222.033C128.5,-213.028 128.5,-204.028 128.5,-195.617"/>
<polygon fill="none" stroke="midnightblue" points="125,-222.17 128.5,-232.17 132,-222.17 125,-222.17"/>
</g>
<!-- Node3 -->
<g id="node3" class="node"><title>Node3</title>
<polygon fill="white" stroke="#bfbfbf" points="102,-392.5 102,-449.5 155,-449.5 155,-392.5 102,-392.5"/>
<text text-anchor="middle" x="128.5" y="-437.5" font-family="Helvetica,sans-Serif" font-size="10.00">QObject</text>
<polyline fill="none" stroke="#bfbfbf" points="102,-430.5 155,-430.5 "/>
<text text-anchor="middle" x="128.5" y="-418.5" font-family="Helvetica,sans-Serif" font-size="10.00"> </text>
<polyline fill="none" stroke="#bfbfbf" points="102,-411.5 155,-411.5 "/>
<text text-anchor="middle" x="128.5" y="-399.5" font-family="Helvetica,sans-Serif" font-size="10.00"> </text>
</g>
<!-- Node3&#45;&gt;Node2 -->
<g id="edge2" class="edge"><title>Node3&#45;&gt;Node2</title>
<path fill="none" stroke="midnightblue" d="M128.5,-382.099C128.5,-373.739 128.5,-364.68 128.5,-355.672"/>
<polygon fill="none" stroke="midnightblue" points="125,-382.258 128.5,-392.258 132,-382.258 125,-382.258"/>
</g>
</g>
</svg>
        <g id="navigator" transform="translate(0 0)" fill="#404254">
                <rect fill="#f2f5e9" fill-opacity="0.5" stroke="#606060" stroke-width=".5" x="0" y="0" width="60" height="60"/>
                <use id="zoomplus" xlink:href="#zoomPlus" x="17" y="9" onmousedown="handleZoom(evt,'in')"/>
                <use id="zoomminus" xlink:href="#zoomMin" x="42" y="9" onmousedown="handleZoom(evt,'out')"/>
                <use id="reset" xlink:href="#resetDef" x="30" y="36" onmousedown="handleReset()"/>
                <g id="arrowUp" xlink:href="#dirArrow" transform="translate(30 24)" onmousedown="handlePan(0,-1)">
                  <use xlink:href="#rim" fill="#404040">
                        <set attributeName="fill" to="#808080" begin="arrowUp.mouseover" end="arrowUp.mouseout"/>
                  </use>
                  <path fill="none" stroke="white" stroke-width="1.5" d="M0,-3.0v7 M-2.5,-0.5L0,-3.0L2.5,-0.5"/>
                </g>
                <g id="arrowRight" xlink:href="#dirArrow" transform="rotate(90) translate(36 -43)" onmousedown="handlePan(1,0)">
                  <use xlink:href="#rim" fill="#404040">
                        <set attributeName="fill" to="#808080" begin="arrowRight.mouseover" end="arrowRight.mouseout"/>
                  </use>
                  <path fill="none" stroke="white" stroke-width="1.5" d="M0,-3.0v7 M-2.5,-0.5L0,-3.0L2.5,-0.5"/>
                </g>
                <g id="arrowDown" xlink:href="#dirArrow" transform="rotate(180) translate(-30 -48)" onmousedown="handlePan(0,1)">
                  <use xlink:href="#rim" fill="#404040">
                        <set attributeName="fill" to="#808080" begin="arrowDown.mouseover" end="arrowDown.mouseout"/>
                  </use>
                  <path fill="none" stroke="white" stroke-width="1.5" d="M0,-3.0v7 M-2.5,-0.5L0,-3.0L2.5,-0.5"/>
                </g>
                <g id="arrowLeft" xlink:href="#dirArrow" transform="rotate(270) translate(-36 17)" onmousedown="handlePan(-1,0)">
                  <use xlink:href="#rim" fill="#404040">
                        <set attributeName="fill" to="#808080" begin="arrowLeft.mouseover" end="arrowLeft.mouseout"/>
                  </use>
                  <path fill="none" stroke="white" stroke-width="1.5" d="M0,-3.0v7 M-2.5,-0.5L0,-3.0L2.5,-0.5"/>
                </g>
        </g>
        <svg viewBox="0 0 15 15" width="100%" height="30px" preserveAspectRatio="xMaxYMin meet">
         <g id="arrow_out" transform="scale(0.3 0.3)">
          <a xlink:href="classspider_1_1_function_value__inherit__graph_org.svg" target="_base">
           <rect id="button" ry="5" rx="5" y="6" x="6" height="38" width="38"
                fill="#f2f5e9" fill-opacity="0.5" stroke="#606060" stroke-width="1.0"/>
           <path id="arrow"
             d="M 11.500037,31.436501 C 11.940474,20.09759 22.043105,11.32322 32.158766,21.979434 L 37.068811,17.246167 C 37.068811,17.246167 37.088388,32 37.088388,32 L 22.160133,31.978069 C 22.160133,31.978069 26.997745,27.140456 26.997745,27.140456 C 18.528582,18.264221 13.291696,25.230495 11.500037,31.436501 z"
             style="fill:#404040;"/>
          </a>
         </g>
        </svg>
</svg>
