<?xml version="1.0" encoding="UTF-8" standalone="no"?>
<!DOCTYPE svg PUBLIC "-//W3C//DTD SVG 1.1//EN"
 "http://www.w3.org/Graphics/SVG/1.1/DTD/svg11.dtd">
<!-- Generated by graphviz version 2.38.0 (20140413.2041)
 -->
<!-- Title: spider::NCircularLayout Pages: 1 -->
<!--zoomable 796 -->
<svg id="main" version="1.1" xmlns="http://www.w3.org/2000/svg" xmlns:xlink="http://www.w3.org/1999/xlink" xml:space="preserve" onload="init(evt)">
<style type="text/css"><![CDATA[
.edge:hover path { stroke: red; }
.edge:hover polygon { stroke: red; fill: red; }
]]></style>
<script type="text/javascript"><![CDATA[
var edges = document.getElementsByTagName('g');
if (edges && edges.length) {
  for (var i=0;i<edges.length;i++) {
    if (edges[i].id.substr(0,4)=='edge') {
      edges[i].setAttribute('class','edge');
    }
  }
}
]]></script>
        <defs>
                <circle id="rim" cx="0" cy="0" r="7"/>
                <circle id="rim2" cx="0" cy="0" r="3.5"/>
                <g id="zoomPlus">
                        <use xlink:href="#rim" fill="#404040">
                                <set attributeName="fill" to="#808080" begin="zoomplus.mouseover" end="zoomplus.mouseout"/>
                        </use>
                        <path d="M-4,0h8M0,-4v8" fill="none" stroke="white" stroke-width="1.5" pointer-events="none"/>
                </g>
                <g id="zoomMin">
                        <use xlink:href="#rim" fill="#404040">
                                <set attributeName="fill" to="#808080" begin="zoomminus.mouseover" end="zoomminus.mouseout"/>
                        </use>
                        <path d="M-4,0h8" fill="none" stroke="white" stroke-width="1.5" pointer-events="none"/>
                </g>
                <g id="dirArrow">
                        <path fill="none" stroke="white" stroke-width="1.5" d="M0,-3.0v7 M-2.5,-0.5L0,-3.0L2.5,-0.5"/>
                </g>
               <g id="resetDef">
                       <use xlink:href="#rim2" fill="#404040">
                               <set attributeName="fill" to="#808080" begin="reset.mouseover" end="reset.mouseout"/>
                       </use>
               </g>
        </defs>

<script type="text/javascript">
var viewWidth = 419;
var viewHeight = 796;
var sectionId = 'dynsection-1';
</script>
<script xlink:href="svgpan.js"/>
<svg id="graph" class="graph">
<g id="viewport">
<title>spider::NCircularLayout</title>
<polygon fill="white" stroke="none" points="-4,4 -4,-792 414.5,-792 414.5,4 -4,4"/>
<!-- Node1 -->
<g id="node1" class="node"><title>Node1</title>
<polygon fill="#bfbfbf" stroke="black" points="128,-0.5 128,-68.5 247,-68.5 247,-0.5 128,-0.5"/>
<text text-anchor="middle" x="187.5" y="-56.5" font-family="Helvetica,sans-Serif" font-size="10.00">spider::NCircularLayout</text>
<polyline fill="none" stroke="black" points="128,-49.5 247,-49.5 "/>
<text text-anchor="middle" x="187.5" y="-37.5" font-family="Helvetica,sans-Serif" font-size="10.00"> </text>
<polyline fill="none" stroke="black" points="128,-30.5 247,-30.5 "/>
<text text-anchor="start" x="136" y="-18.5" font-family="Helvetica,sans-Serif" font-size="10.00">+ NCircularLayout()</text>
<text text-anchor="start" x="136" y="-7.5" font-family="Helvetica,sans-Serif" font-size="10.00">+ generate()</text>
</g>
<!-- Node2 -->
<g id="node2" class="node"><title>Node2</title>
<g id="a_node2"><a xlink:href="classspider_1_1_layout.html" target="_top" xlink:title="{spider::Layout\n|# hasEdgeData\l|+ Layout()\l+ ~Layout()\l+ generate()\l+ getVertex()\l+ getEdge()\l+ getGraph()\l+ getGraphValue()\l+ getVertexAttribute()\l+ getEdgeAttribute()\l+ setVertexAttribute()\l+ setEdgeAttribute()\l}">
<polygon fill="white" stroke="black" points="132.5,-106.5 132.5,-273.5 242.5,-273.5 242.5,-106.5 132.5,-106.5"/>
<text text-anchor="middle" x="187.5" y="-261.5" font-family="Helvetica,sans-Serif" font-size="10.00">spider::Layout</text>
<polyline fill="none" stroke="black" points="132.5,-254.5 242.5,-254.5 "/>
<text text-anchor="start" x="140.5" y="-242.5" font-family="Helvetica,sans-Serif" font-size="10.00"># hasEdgeData</text>
<polyline fill="none" stroke="black" points="132.5,-235.5 242.5,-235.5 "/>
<text text-anchor="start" x="140.5" y="-223.5" font-family="Helvetica,sans-Serif" font-size="10.00">+ Layout()</text>
<text text-anchor="start" x="140.5" y="-212.5" font-family="Helvetica,sans-Serif" font-size="10.00">+ ~Layout()</text>
<text text-anchor="start" x="140.5" y="-201.5" font-family="Helvetica,sans-Serif" font-size="10.00">+ generate()</text>
<text text-anchor="start" x="140.5" y="-190.5" font-family="Helvetica,sans-Serif" font-size="10.00">+ getVertex()</text>
<text text-anchor="start" x="140.5" y="-179.5" font-family="Helvetica,sans-Serif" font-size="10.00">+ getEdge()</text>
<text text-anchor="start" x="140.5" y="-168.5" font-family="Helvetica,sans-Serif" font-size="10.00">+ getGraph()</text>
<text text-anchor="start" x="140.5" y="-157.5" font-family="Helvetica,sans-Serif" font-size="10.00">+ getGraphValue()</text>
<text text-anchor="start" x="140.5" y="-146.5" font-family="Helvetica,sans-Serif" font-size="10.00">+ getVertexAttribute()</text>
<text text-anchor="start" x="140.5" y="-135.5" font-family="Helvetica,sans-Serif" font-size="10.00">+ getEdgeAttribute()</text>
<text text-anchor="start" x="140.5" y="-124.5" font-family="Helvetica,sans-Serif" font-size="10.00">+ setVertexAttribute()</text>
<text text-anchor="start" x="140.5" y="-113.5" font-family="Helvetica,sans-Serif" font-size="10.00">+ setEdgeAttribute()</text>
</a>
</g>
</g>
<!-- Node2&#45;&gt;Node1 -->
<g id="edge1" class="edge"><title>Node2&#45;&gt;Node1</title>
<path fill="none" stroke="midnightblue" d="M187.5,-96.1656C187.5,-86.435 187.5,-77.0656 187.5,-68.7215"/>
<polygon fill="none" stroke="midnightblue" points="184,-96.4088 187.5,-106.409 191,-96.4089 184,-96.4088"/>
</g>
<!-- Node3 -->
<g id="node3" class="node"><title>Node3</title>
<g id="a_node3"><a xlink:href="classgraph_1_1_vertex_attribute.html" target="_top" xlink:title="{graph::VertexAttribute\l\&lt; spider::GraphValue::\lGraph, spider::vec2 \&gt;\n||+ VertexAttribute()\l+ VertexAttribute()\l+ value()\l+ isKnown()\l+ count()\l+ getData()\l}">
<polygon fill="white" stroke="black" points="0,-327 0,-461 115,-461 115,-327 0,-327"/>
<text text-anchor="start" x="8" y="-449" font-family="Helvetica,sans-Serif" font-size="10.00">graph::VertexAttribute</text>
<text text-anchor="start" x="8" y="-438" font-family="Helvetica,sans-Serif" font-size="10.00">&lt; spider::GraphValue::</text>
<text text-anchor="middle" x="57.5" y="-427" font-family="Helvetica,sans-Serif" font-size="10.00">Graph, spider::vec2 &gt;</text>
<polyline fill="none" stroke="black" points="0,-420 115,-420 "/>
<text text-anchor="middle" x="57.5" y="-408" font-family="Helvetica,sans-Serif" font-size="10.00"> </text>
<polyline fill="none" stroke="black" points="0,-401 115,-401 "/>
<text text-anchor="start" x="8" y="-389" font-family="Helvetica,sans-Serif" font-size="10.00">+ VertexAttribute()</text>
<text text-anchor="start" x="8" y="-378" font-family="Helvetica,sans-Serif" font-size="10.00">+ VertexAttribute()</text>
<text text-anchor="start" x="8" y="-367" font-family="Helvetica,sans-Serif" font-size="10.00">+ value()</text>
<text text-anchor="start" x="8" y="-356" font-family="Helvetica,sans-Serif" font-size="10.00">+ isKnown()</text>
<text text-anchor="start" x="8" y="-345" font-family="Helvetica,sans-Serif" font-size="10.00">+ count()</text>
<text text-anchor="start" x="8" y="-334" font-family="Helvetica,sans-Serif" font-size="10.00">+ getData()</text>
</a>
</g>
</g>
<!-- Node3&#45;&gt;Node2 -->
<g id="edge2" class="edge"><title>Node3&#45;&gt;Node2</title>
<path fill="none" stroke="#404040" d="M100.067,-326.858C108.886,-313.154 118.333,-298.476 127.638,-284.016"/>
<polygon fill="none" stroke="#404040" points="127.884,-283.634 127.767,-276.424 134.378,-273.544 134.494,-280.754 127.884,-283.634"/>
<text text-anchor="middle" x="140" y="-295" font-family="Helvetica,sans-Serif" font-size="10.00"> #points</text>
</g>
<!-- Node4 -->
<g id="node4" class="node"><title>Node4</title>
<g id="a_node4"><a xlink:href="classgraph_1_1_edge_attribute.html" target="_top" xlink:title="{graph::EdgeAttribute\l\&lt; spider::GraphValue\l::Graph, Curve \&gt;\n||+ EdgeAttribute()\l+ value()\l}">
<polygon fill="white" stroke="black" points="133,-349 133,-439 242,-439 242,-349 133,-349"/>
<text text-anchor="start" x="141" y="-427" font-family="Helvetica,sans-Serif" font-size="10.00">graph::EdgeAttribute</text>
<text text-anchor="start" x="141" y="-416" font-family="Helvetica,sans-Serif" font-size="10.00">&lt; spider::GraphValue</text>
<text text-anchor="middle" x="187.5" y="-405" font-family="Helvetica,sans-Serif" font-size="10.00">::Graph, Curve &gt;</text>
<polyline fill="none" stroke="black" points="133,-398 242,-398 "/>
<text text-anchor="middle" x="187.5" y="-386" font-family="Helvetica,sans-Serif" font-size="10.00"> </text>
<polyline fill="none" stroke="black" points="133,-379 242,-379 "/>
<text text-anchor="start" x="141" y="-367" font-family="Helvetica,sans-Serif" font-size="10.00">+ EdgeAttribute()</text>
<text text-anchor="start" x="141" y="-356" font-family="Helvetica,sans-Serif" font-size="10.00">+ value()</text>
</a>
</g>
</g>
<!-- Node4&#45;&gt;Node2 -->
<g id="edge3" class="edge"><title>Node4&#45;&gt;Node2</title>
<path fill="none" stroke="#404040" d="M187.5,-348.67C187.5,-330.15 187.5,-307.871 187.5,-285.972"/>
<polygon fill="none" stroke="#404040" points="187.5,-285.87 183.5,-279.87 187.5,-273.87 191.5,-279.87 187.5,-285.87"/>
<text text-anchor="middle" x="206.5" y="-295" font-family="Helvetica,sans-Serif" font-size="10.00"> #curves</text>
</g>
<!-- Node5 -->
<g id="node5" class="node"><title>Node5</title>
<g id="a_node5"><a xlink:href="classspider_1_1_graph_value.html" target="_top" xlink:title="wrapper class for Graph (graph::AdjacencyList&lt;int,int&gt;) ">
<polygon fill="white" stroke="black" points="260,-321.5 260,-466.5 373,-466.5 373,-321.5 260,-321.5"/>
<text text-anchor="middle" x="316.5" y="-454.5" font-family="Helvetica,sans-Serif" font-size="10.00">spider::GraphValue</text>
<polyline fill="none" stroke="black" points="260,-447.5 373,-447.5 "/>
<text text-anchor="middle" x="316.5" y="-435.5" font-family="Helvetica,sans-Serif" font-size="10.00"> </text>
<polyline fill="none" stroke="black" points="260,-428.5 373,-428.5 "/>
<text text-anchor="start" x="268" y="-416.5" font-family="Helvetica,sans-Serif" font-size="10.00">+ GraphValue()</text>
<text text-anchor="start" x="268" y="-405.5" font-family="Helvetica,sans-Serif" font-size="10.00">+ GraphValue()</text>
<text text-anchor="start" x="268" y="-394.5" font-family="Helvetica,sans-Serif" font-size="10.00">+ show()</text>
<text text-anchor="start" x="268" y="-383.5" font-family="Helvetica,sans-Serif" font-size="10.00">+ setVertexAttribute()</text>
<text text-anchor="start" x="268" y="-372.5" font-family="Helvetica,sans-Serif" font-size="10.00">+ setVertexAttribute()</text>
<text text-anchor="start" x="268" y="-361.5" font-family="Helvetica,sans-Serif" font-size="10.00">+ getVertexAttribute()</text>
<text text-anchor="start" x="268" y="-350.5" font-family="Helvetica,sans-Serif" font-size="10.00">+ getGraphAttribs()</text>
<text text-anchor="start" x="268" y="-339.5" font-family="Helvetica,sans-Serif" font-size="10.00">+ hasVertexAttribute()</text>
<text text-anchor="start" x="268" y="-328.5" font-family="Helvetica,sans-Serif" font-size="10.00">+ hasAttribute()</text>
</a>
</g>
</g>
<!-- Node5&#45;&gt;Node2 -->
<g id="edge4" class="edge"><title>Node5&#45;&gt;Node2</title>
<path fill="none" stroke="#404040" d="M270.838,-321.498C263.137,-309.439 255.043,-296.766 247.052,-284.251"/>
<polygon fill="none" stroke="#404040" points="246.832,-283.908 240.232,-281.004 240.373,-273.794 246.974,-276.698 246.832,-283.908"/>
<text text-anchor="middle" x="262.5" y="-295" font-family="Helvetica,sans-Serif" font-size="10.00"> #g</text>
</g>
<!-- Node6 -->
<g id="node6" class="node"><title>Node6</title>
<g id="a_node6"><a xlink:href="classspider_1_1_value.html" target="_top" xlink:title="Value contains the different datatypes that will be supported by the language. It maps the names of t...">
<polygon fill="white" stroke="black" points="174.5,-542 174.5,-665 284.5,-665 284.5,-542 174.5,-542"/>
<text text-anchor="middle" x="229.5" y="-653" font-family="Helvetica,sans-Serif" font-size="10.00">spider::Value</text>
<polyline fill="none" stroke="black" points="174.5,-646 284.5,-646 "/>
<text text-anchor="start" x="182.5" y="-634" font-family="Helvetica,sans-Serif" font-size="10.00">+ type</text>
<polyline fill="none" stroke="black" points="174.5,-627 284.5,-627 "/>
<text text-anchor="start" x="182.5" y="-615" font-family="Helvetica,sans-Serif" font-size="10.00">+ Value()</text>
<text text-anchor="start" x="182.5" y="-604" font-family="Helvetica,sans-Serif" font-size="10.00">+ ~Value()</text>
<text text-anchor="start" x="182.5" y="-593" font-family="Helvetica,sans-Serif" font-size="10.00">+ show()</text>
<text text-anchor="start" x="182.5" y="-582" font-family="Helvetica,sans-Serif" font-size="10.00">+ read()</text>
<text text-anchor="start" x="182.5" y="-571" font-family="Helvetica,sans-Serif" font-size="10.00">+ changeCallback()</text>
<text text-anchor="start" x="182.5" y="-560" font-family="Helvetica,sans-Serif" font-size="10.00">+ NameToTypeMap()</text>
<text text-anchor="start" x="182.5" y="-549" font-family="Helvetica,sans-Serif" font-size="10.00">+ TypeToNameMap()</text>
</a>
</g>
</g>
<!-- Node6&#45;&gt;Node5 -->
<g id="edge5" class="edge"><title>Node6&#45;&gt;Node5</title>
<path fill="none" stroke="midnightblue" d="M258.789,-532.644C267.698,-511.395 277.501,-488.015 286.459,-466.649"/>
<polygon fill="none" stroke="midnightblue" points="255.537,-531.349 254.898,-541.925 261.992,-534.056 255.537,-531.349"/>
</g>
<!-- Node7 -->
<g id="node7" class="node"><title>Node7</title>
<polygon fill="white" stroke="#bfbfbf" points="203,-730.5 203,-787.5 256,-787.5 256,-730.5 203,-730.5"/>
<text text-anchor="middle" x="229.5" y="-775.5" font-family="Helvetica,sans-Serif" font-size="10.00">QObject</text>
<polyline fill="none" stroke="#bfbfbf" points="203,-768.5 256,-768.5 "/>
<text text-anchor="middle" x="229.5" y="-756.5" font-family="Helvetica,sans-Serif" font-size="10.00"> </text>
<polyline fill="none" stroke="#bfbfbf" points="203,-749.5 256,-749.5 "/>
<text text-anchor="middle" x="229.5" y="-737.5" font-family="Helvetica,sans-Serif" font-size="10.00"> </text>
</g>
<!-- Node7&#45;&gt;Node6 -->
<g id="edge6" class="edge"><title>Node7&#45;&gt;Node6</title>
<path fill="none" stroke="midnightblue" d="M229.5,-719.863C229.5,-703.35 229.5,-683.613 229.5,-665.172"/>
<polygon fill="none" stroke="midnightblue" points="226,-720.202 229.5,-730.202 233,-720.202 226,-720.202"/>
</g>
<!-- Node8 -->
<g id="node8" class="node"><title>Node8</title>
<g id="a_node8"><a xlink:href="classgraph_1_1_adjacency_list.html" target="_top" xlink:title="class to store adjacency list of a graph ">
<polygon fill="white" stroke="black" points="302.5,-514.5 302.5,-692.5 410.5,-692.5 410.5,-514.5 302.5,-514.5"/>
<text text-anchor="start" x="310.5" y="-680.5" font-family="Helvetica,sans-Serif" font-size="10.00">graph::AdjacencyList</text>
<text text-anchor="middle" x="356.5" y="-669.5" font-family="Helvetica,sans-Serif" font-size="10.00">&lt; VT, ET &gt;</text>
<polyline fill="none" stroke="black" points="302.5,-662.5 410.5,-662.5 "/>
<text text-anchor="middle" x="356.5" y="-650.5" font-family="Helvetica,sans-Serif" font-size="10.00"> </text>
<polyline fill="none" stroke="black" points="302.5,-643.5 410.5,-643.5 "/>
<text text-anchor="start" x="310.5" y="-631.5" font-family="Helvetica,sans-Serif" font-size="10.00">+ AdjacencyList()</text>
<text text-anchor="start" x="310.5" y="-620.5" font-family="Helvetica,sans-Serif" font-size="10.00">+ AdjacencyList()</text>
<text text-anchor="start" x="310.5" y="-609.5" font-family="Helvetica,sans-Serif" font-size="10.00">+ operator=()</text>
<text text-anchor="start" x="310.5" y="-598.5" font-family="Helvetica,sans-Serif" font-size="10.00">+ ~AdjacencyList()</text>
<text text-anchor="start" x="310.5" y="-587.5" font-family="Helvetica,sans-Serif" font-size="10.00">+ insertVertex()</text>
<text text-anchor="start" x="310.5" y="-576.5" font-family="Helvetica,sans-Serif" font-size="10.00">+ removeVertex()</text>
<text text-anchor="start" x="310.5" y="-565.5" font-family="Helvetica,sans-Serif" font-size="10.00">+ insertEdge()</text>
<text text-anchor="start" x="310.5" y="-554.5" font-family="Helvetica,sans-Serif" font-size="10.00">+ removeEdge()</text>
<text text-anchor="start" x="310.5" y="-543.5" font-family="Helvetica,sans-Serif" font-size="10.00">+ begin()</text>
<text text-anchor="start" x="310.5" y="-532.5" font-family="Helvetica,sans-Serif" font-size="10.00">+ end()</text>
<text text-anchor="start" x="310.5" y="-521.5" font-family="Helvetica,sans-Serif" font-size="10.00">and 8 more...</text>
</a>
</g>
</g>
<!-- Node8&#45;&gt;Node5 -->
<g id="edge7" class="edge"><title>Node8&#45;&gt;Node5</title>
<path fill="none" stroke="#404040" d="M339.478,-514.2C337.206,-502.412 334.881,-490.35 332.624,-478.644"/>
<polygon fill="none" stroke="#404040" points="332.574,-478.383 327.511,-473.249 330.302,-466.6 335.366,-471.735 332.574,-478.383"/>
<text text-anchor="middle" x="348.5" y="-488" font-family="Helvetica,sans-Serif" font-size="10.00"> +data</text>
</g>
</g>
</svg>
        <g id="navigator" transform="translate(0 0)" fill="#404254">
                <rect fill="#f2f5e9" fill-opacity="0.5" stroke="#606060" stroke-width=".5" x="0" y="0" width="60" height="60"/>
                <use id="zoomplus" xlink:href="#zoomPlus" x="17" y="9" onmousedown="handleZoom(evt,'in')"/>
                <use id="zoomminus" xlink:href="#zoomMin" x="42" y="9" onmousedown="handleZoom(evt,'out')"/>
                <use id="reset" xlink:href="#resetDef" x="30" y="36" onmousedown="handleReset()"/>
                <g id="arrowUp" xlink:href="#dirArrow" transform="translate(30 24)" onmousedown="handlePan(0,-1)">
                  <use xlink:href="#rim" fill="#404040">
                        <set attributeName="fill" to="#808080" begin="arrowUp.mouseover" end="arrowUp.mouseout"/>
                  </use>
                  <path fill="none" stroke="white" stroke-width="1.5" d="M0,-3.0v7 M-2.5,-0.5L0,-3.0L2.5,-0.5"/>
                </g>
                <g id="arrowRight" xlink:href="#dirArrow" transform="rotate(90) translate(36 -43)" onmousedown="handlePan(1,0)">
                  <use xlink:href="#rim" fill="#404040">
                        <set attributeName="fill" to="#808080" begin="arrowRight.mouseover" end="arrowRight.mouseout"/>
                  </use>
                  <path fill="none" stroke="white" stroke-width="1.5" d="M0,-3.0v7 M-2.5,-0.5L0,-3.0L2.5,-0.5"/>
                </g>
                <g id="arrowDown" xlink:href="#dirArrow" transform="rotate(180) translate(-30 -48)" onmousedown="handlePan(0,1)">
                  <use xlink:href="#rim" fill="#404040">
                        <set attributeName="fill" to="#808080" begin="arrowDown.mouseover" end="arrowDown.mouseout"/>
                  </use>
                  <path fill="none" stroke="white" stroke-width="1.5" d="M0,-3.0v7 M-2.5,-0.5L0,-3.0L2.5,-0.5"/>
                </g>
                <g id="arrowLeft" xlink:href="#dirArrow" transform="rotate(270) translate(-36 17)" onmousedown="handlePan(-1,0)">
                  <use xlink:href="#rim" fill="#404040">
                        <set attributeName="fill" to="#808080" begin="arrowLeft.mouseover" end="arrowLeft.mouseout"/>
                  </use>
                  <path fill="none" stroke="white" stroke-width="1.5" d="M0,-3.0v7 M-2.5,-0.5L0,-3.0L2.5,-0.5"/>
                </g>
        </g>
        <svg viewBox="0 0 15 15" width="100%" height="30px" preserveAspectRatio="xMaxYMin meet">
         <g id="arrow_out" transform="scale(0.3 0.3)">
          <a xlink:href="classspider_1_1_n_circular_layout__coll__graph_org.svg" target="_base">
           <rect id="button" ry="5" rx="5" y="6" x="6" height="38" width="38"
                fill="#f2f5e9" fill-opacity="0.5" stroke="#606060" stroke-width="1.0"/>
           <path id="arrow"
             d="M 11.500037,31.436501 C 11.940474,20.09759 22.043105,11.32322 32.158766,21.979434 L 37.068811,17.246167 C 37.068811,17.246167 37.088388,32 37.088388,32 L 22.160133,31.978069 C 22.160133,31.978069 26.997745,27.140456 26.997745,27.140456 C 18.528582,18.264221 13.291696,25.230495 11.500037,31.436501 z"
             style="fill:#404040;"/>
          </a>
         </g>
        </svg>
</svg>
