<?xml version="1.0" encoding="UTF-8" standalone="no"?>
<!DOCTYPE svg PUBLIC "-//W3C//DTD SVG 1.1//EN"
 "http://www.w3.org/Graphics/SVG/1.1/DTD/svg11.dtd">
<!-- Generated by graphviz version 2.38.0 (20140413.2041)
 -->
<!-- Title: include/graph Pages: 1 -->
<svg width="508pt" height="111pt"
 viewBox="0.00 0.00 508.00 111.00" xmlns="http://www.w3.org/2000/svg" xmlns:xlink="http://www.w3.org/1999/xlink">
<g id="graph0" class="graph" transform="scale(1 1) rotate(0) translate(4 107)">
<title>include/graph</title>
<polygon fill="white" stroke="none" points="-4,4 -4,-107 504,-107 504,4 -4,4"/>
<g id="clust1" class="cluster"><title>clusterdir_d44c64559bbebec7f509842c48db8b23</title>
<g id="a_clust1"><a xlink:href="dir_d44c64559bbebec7f509842c48db8b23.html" target="_top" xlink:title="include">
<polygon fill="#ddddee" stroke="black" points="8,-8 8,-95 492,-95 492,-8 8,-8"/>
<text text-anchor="middle" x="250" y="-83" font-family="Helvetica,sans-Serif" font-size="10.00">include</text>
</a>
</g>
</g>
<g id="clust2" class="cluster"><title>clusterdir_8500bdfd3b26e2c9053a9d6b880ceba8</title>
<g id="a_clust2"><a xlink:href="dir_8500bdfd3b26e2c9053a9d6b880ceba8.html" target="_top">
<polygon fill="#eeeeff" stroke="black" points="16,-16 16,-68 484,-68 484,-16 16,-16"/>
</a>
</g>
</g>
<!-- dir_8500bdfd3b26e2c9053a9d6b880ceba8 -->
<g id="node1" class="node"><title>dir_8500bdfd3b26e2c9053a9d6b880ceba8</title>
<text text-anchor="middle" x="449" y="-39.5" font-family="Helvetica,sans-Serif" font-size="10.00">graph</text>
</g>
<!-- dir_1047ade67c54fde25a904b31fedb9d05 -->
<g id="node2" class="node"><title>dir_1047ade67c54fde25a904b31fedb9d05</title>
<g id="a_node2"><a xlink:href="dir_1047ade67c54fde25a904b31fedb9d05.html" target="_top" xlink:title="algorithm">
<polygon fill="white" stroke="black" points="404,-60 348,-60 348,-24 404,-24 404,-60"/>
<text text-anchor="middle" x="376" y="-39.5" font-family="Helvetica,sans-Serif" font-size="10.00">algorithm</text>
</a>
</g>
</g>
<!-- dir_fbc3886029d53c535c5cd8b7b341fee3 -->
<g id="node3" class="node"><title>dir_fbc3886029d53c535c5cd8b7b341fee3</title>
<g id="a_node3"><a xlink:href="dir_fbc3886029d53c535c5cd8b7b341fee3.html" target="_top" xlink:title="implementation">
<polygon fill="white" stroke="black" points="329.5,-60 246.5,-60 246.5,-24 329.5,-24 329.5,-60"/>
<text text-anchor="middle" x="288" y="-39.5" font-family="Helvetica,sans-Serif" font-size="10.00">implementation</text>
</a>
</g>
</g>
<!-- dir_a8f240ada3b0964e0d43ace27943b500 -->
<g id="node4" class="node"><title>dir_a8f240ada3b0964e0d43ace27943b500</title>
<g id="a_node4"><a xlink:href="dir_a8f240ada3b0964e0d43ace27943b500.html" target="_top" xlink:title="structures">
<polygon fill="white" stroke="black" points="228,-60 168,-60 168,-24 228,-24 228,-60"/>
<text text-anchor="middle" x="198" y="-39.5" font-family="Helvetica,sans-Serif" font-size="10.00">structures</text>
</a>
</g>
</g>
<!-- dir_30b2764f90b7638adcde3d0d5fe29fa7 -->
<g id="node5" class="node"><title>dir_30b2764f90b7638adcde3d0d5fe29fa7</title>
<g id="a_node5"><a xlink:href="dir_30b2764f90b7638adcde3d0d5fe29fa7.html" target="_top" xlink:title="test">
<polygon fill="white" stroke="red" points="150,-60 96,-60 96,-24 150,-24 150,-60"/>
<text text-anchor="middle" x="123" y="-39.5" font-family="Helvetica,sans-Serif" font-size="10.00">test</text>
</a>
</g>
</g>
<!-- dir_2e3bacb0c20673db212127ca199099a2 -->
<g id="node6" class="node"><title>dir_2e3bacb0c20673db212127ca199099a2</title>
<g id="a_node6"><a xlink:href="dir_2e3bacb0c20673db212127ca199099a2.html" target="_top" xlink:title="util">
<polygon fill="white" stroke="black" points="78,-60 24,-60 24,-24 78,-24 78,-60"/>
<text text-anchor="middle" x="51" y="-39.5" font-family="Helvetica,sans-Serif" font-size="10.00">util</text>
</a>
</g>
</g>
</g>
</svg>
