<?xml version="1.0" encoding="UTF-8" standalone="no"?>
<!DOCTYPE svg PUBLIC "-//W3C//DTD SVG 1.1//EN"
 "http://www.w3.org/Graphics/SVG/1.1/DTD/svg11.dtd">
<!-- Generated by graphviz version 2.38.0 (20140413.2041)
 -->
<!-- Title: include Pages: 1 -->
<svg width="460pt" height="76pt"
 viewBox="0.00 0.00 460.00 76.00" xmlns="http://www.w3.org/2000/svg" xmlns:xlink="http://www.w3.org/1999/xlink">
<g id="graph0" class="graph" transform="scale(1 1) rotate(0) translate(4 72)">
<title>include</title>
<polygon fill="white" stroke="none" points="-4,4 -4,-72 456,-72 456,4 -4,4"/>
<g id="clust1" class="cluster"><title>clusterdir_d44c64559bbebec7f509842c48db8b23</title>
<g id="a_clust1"><a xlink:href="dir_d44c64559bbebec7f509842c48db8b23.html" target="_top">
<polygon fill="#eeeeff" stroke="black" points="8,-8 8,-60 444,-60 444,-8 8,-8"/>
</a>
</g>
</g>
<!-- dir_d44c64559bbebec7f509842c48db8b23 -->
<g id="node1" class="node"><title>dir_d44c64559bbebec7f509842c48db8b23</title>
<text text-anchor="middle" x="409" y="-31.5" font-family="Helvetica,sans-Serif" font-size="10.00">include</text>
</g>
<!-- dir_ae5d2dcb7ec6e2349ab1592df0889953 -->
<g id="node2" class="node"><title>dir_ae5d2dcb7ec6e2349ab1592df0889953</title>
<g id="a_node2"><a xlink:href="dir_ae5d2dcb7ec6e2349ab1592df0889953.html" target="_top" xlink:title="External">
<polygon fill="white" stroke="black" points="364,-52 310,-52 310,-16 364,-16 364,-52"/>
<text text-anchor="middle" x="337" y="-31.5" font-family="Helvetica,sans-Serif" font-size="10.00">External</text>
</a>
</g>
</g>
<!-- dir_8500bdfd3b26e2c9053a9d6b880ceba8 -->
<g id="node3" class="node"><title>dir_8500bdfd3b26e2c9053a9d6b880ceba8</title>
<g id="a_node3"><a xlink:href="dir_8500bdfd3b26e2c9053a9d6b880ceba8.html" target="_top" xlink:title="graph">
<polygon fill="white" stroke="red" points="292,-52 238,-52 238,-16 292,-16 292,-52"/>
<text text-anchor="middle" x="265" y="-31.5" font-family="Helvetica,sans-Serif" font-size="10.00">graph</text>
</a>
</g>
</g>
<!-- dir_1ea13fe69063c0894006fe90b7a844dd -->
<g id="node4" class="node"><title>dir_1ea13fe69063c0894006fe90b7a844dd</title>
<g id="a_node4"><a xlink:href="dir_1ea13fe69063c0894006fe90b7a844dd.html" target="_top" xlink:title="Layout">
<polygon fill="white" stroke="black" points="220,-52 166,-52 166,-16 220,-16 220,-52"/>
<text text-anchor="middle" x="193" y="-31.5" font-family="Helvetica,sans-Serif" font-size="10.00">Layout</text>
</a>
</g>
</g>
<!-- dir_fc01460a9fa405d375fabb25cf3f5a8b -->
<g id="node5" class="node"><title>dir_fc01460a9fa405d375fabb25cf3f5a8b</title>
<g id="a_node5"><a xlink:href="dir_fc01460a9fa405d375fabb25cf3f5a8b.html" target="_top" xlink:title="QtDisplay">
<polygon fill="white" stroke="black" points="148,-52 88,-52 88,-16 148,-16 148,-52"/>
<text text-anchor="middle" x="118" y="-31.5" font-family="Helvetica,sans-Serif" font-size="10.00">QtDisplay</text>
</a>
</g>
</g>
<!-- dir_1ca208ff5322ce240d6ef9b31a4a7064 -->
<g id="node6" class="node"><title>dir_1ca208ff5322ce240d6ef9b31a4a7064</title>
<g id="a_node6"><a xlink:href="dir_1ca208ff5322ce240d6ef9b31a4a7064.html" target="_top" xlink:title="Runtime">
<polygon fill="white" stroke="black" points="70,-52 16,-52 16,-16 70,-16 70,-52"/>
<text text-anchor="middle" x="43" y="-31.5" font-family="Helvetica,sans-Serif" font-size="10.00">Runtime</text>
</a>
</g>
</g>
</g>
</svg>
