<?xml version="1.0" encoding="UTF-8" standalone="no"?>
<!DOCTYPE svg PUBLIC "-//W3C//DTD SVG 1.1//EN"
 "http://www.w3.org/Graphics/SVG/1.1/DTD/svg11.dtd">
<!-- Generated by graphviz version 2.38.0 (20140413.2041)
 -->
<!-- Title: Graphical Class Hierarchy Pages: 1 -->
<svg width="253pt" height="370pt"
 viewBox="0.00 0.00 253.00 370.00" xmlns="http://www.w3.org/2000/svg" xmlns:xlink="http://www.w3.org/1999/xlink">
<g id="graph0" class="graph" transform="scale(1 1) rotate(0) translate(4 366)">
<title>Graphical Class Hierarchy</title>
<polygon fill="white" stroke="none" points="-4,4 -4,-366 249,-366 249,4 -4,4"/>
<!-- Node1 -->
<g id="node1" class="node"><title>Node1</title>
<g id="a_node1"><a xlink:href="classspider_1_1_layout.html" target="_top" xlink:title="spider::Layout">
<polygon fill="white" stroke="black" points="0,-171.5 0,-190.5 78,-190.5 78,-171.5 0,-171.5"/>
<text text-anchor="middle" x="39" y="-178.5" font-family="Helvetica,sans-Serif" font-size="10.00">spider::Layout</text>
</a>
</g>
</g>
<!-- Node2 -->
<g id="node2" class="node"><title>Node2</title>
<g id="a_node2"><a xlink:href="classspider_1_1_bi_circular_layout.html" target="_top" xlink:title="BiCircular Layout for drawing a graph &#45; The layout has two concentric circles on whose circumference ...">
<polygon fill="white" stroke="black" points="119,-342.5 119,-361.5 240,-361.5 240,-342.5 119,-342.5"/>
<text text-anchor="middle" x="179.5" y="-349.5" font-family="Helvetica,sans-Serif" font-size="10.00">spider::BiCircularLayout</text>
</a>
</g>
</g>
<!-- Node1&#45;&gt;Node2 -->
<g id="edge1" class="edge"><title>Node1&#45;&gt;Node2</title>
<path fill="none" stroke="midnightblue" d="M44.2159,-200.938C52.1288,-233.436 72.3064,-297.732 114,-333 118.545,-336.845 123.84,-339.912 129.404,-342.358"/>
<polygon fill="midnightblue" stroke="midnightblue" points="47.5545,-199.837 41.9133,-190.869 40.7306,-201.398 47.5545,-199.837"/>
</g>
<!-- Node3 -->
<g id="node3" class="node"><title>Node3</title>
<g id="a_node3"><a xlink:href="classspider_1_1_binary_tree_layout.html" target="_top" xlink:title="Tree Layout for drawing a graph &#45; The layout starts at the root and plots the adjacent vertices in th...">
<polygon fill="white" stroke="black" points="117,-304.5 117,-323.5 242,-323.5 242,-304.5 117,-304.5"/>
<text text-anchor="middle" x="179.5" y="-311.5" font-family="Helvetica,sans-Serif" font-size="10.00">spider::BinaryTreeLayout</text>
</a>
</g>
</g>
<!-- Node1&#45;&gt;Node3 -->
<g id="edge2" class="edge"><title>Node1&#45;&gt;Node3</title>
<path fill="none" stroke="midnightblue" d="M47.2887,-199.882C58.0479,-225.266 80.5839,-270.081 114,-295 119.241,-298.908 125.275,-302.015 131.505,-304.485"/>
<polygon fill="midnightblue" stroke="midnightblue" points="50.5232,-198.544 43.5146,-190.599 44.0386,-201.181 50.5232,-198.544"/>
</g>
<!-- Node4 -->
<g id="node4" class="node"><title>Node4</title>
<g id="a_node4"><a xlink:href="classspider_1_1_bipartite_layout.html" target="_top" xlink:title="Bipartite Layout for drawing a graph &#45; The layout plots vertices on two sides of an imaginary demarca...">
<polygon fill="white" stroke="black" points="122.5,-266.5 122.5,-285.5 236.5,-285.5 236.5,-266.5 122.5,-266.5"/>
<text text-anchor="middle" x="179.5" y="-273.5" font-family="Helvetica,sans-Serif" font-size="10.00">spider::BipartiteLayout</text>
</a>
</g>
</g>
<!-- Node1&#45;&gt;Node4 -->
<g id="edge3" class="edge"><title>Node1&#45;&gt;Node4</title>
<path fill="none" stroke="midnightblue" d="M52.9598,-198.874C66.3829,-216.146 88.8863,-241.857 114,-257 120.398,-260.858 127.628,-263.974 134.875,-266.479"/>
<polygon fill="midnightblue" stroke="midnightblue" points="55.6188,-196.587 46.8023,-190.712 50.0306,-200.803 55.6188,-196.587"/>
</g>
<!-- Node5 -->
<g id="node5" class="node"><title>Node5</title>
<g id="a_node5"><a xlink:href="classspider_1_1_circular_layout.html" target="_top" xlink:title="Circular Layout for drawing a graph &#45; The layout has a circle on whose circumference the vertex are p...">
<polygon fill="white" stroke="black" points="123.5,-228.5 123.5,-247.5 235.5,-247.5 235.5,-228.5 123.5,-228.5"/>
<text text-anchor="middle" x="179.5" y="-235.5" font-family="Helvetica,sans-Serif" font-size="10.00">spider::CircularLayout</text>
</a>
</g>
</g>
<!-- Node1&#45;&gt;Node5 -->
<g id="edge4" class="edge"><title>Node1&#45;&gt;Node5</title>
<path fill="none" stroke="midnightblue" d="M65.3654,-195.529C79.4006,-203.181 97.3303,-212.333 114,-219 122.78,-222.511 132.461,-225.703 141.594,-228.425"/>
<polygon fill="midnightblue" stroke="midnightblue" points="66.7769,-192.309 56.3343,-190.52 63.3817,-198.431 66.7769,-192.309"/>
</g>
<!-- Node6 -->
<g id="node6" class="node"><title>Node6</title>
<g id="a_node6"><a xlink:href="classspider_1_1_force_based_layout.html" target="_top" xlink:title="Force Based Layout for drawing a graph &#45; This layout plots the vertices in two&#45;dimensional or three&#45;d...">
<polygon fill="white" stroke="black" points="114,-190.5 114,-209.5 245,-209.5 245,-190.5 114,-190.5"/>
<text text-anchor="middle" x="179.5" y="-197.5" font-family="Helvetica,sans-Serif" font-size="10.00">spider::ForceBasedLayout</text>
</a>
</g>
</g>
<!-- Node1&#45;&gt;Node6 -->
<g id="edge5" class="edge"><title>Node1&#45;&gt;Node6</title>
<path fill="none" stroke="midnightblue" d="M88.365,-187.635C96.595,-188.764 105.259,-189.953 113.829,-191.128"/>
<polygon fill="midnightblue" stroke="midnightblue" points="88.5953,-184.134 78.2124,-186.242 87.6439,-191.069 88.5953,-184.134"/>
</g>
<!-- Node7 -->
<g id="node7" class="node"><title>Node7</title>
<g id="a_node7"><a xlink:href="classspider_1_1_grid_layout.html" target="_top" xlink:title="Grid Layout for drawing a graph. The layout plots the vertices at equal distance from all adjacent ve...">
<polygon fill="white" stroke="black" points="131.5,-152.5 131.5,-171.5 227.5,-171.5 227.5,-152.5 131.5,-152.5"/>
<text text-anchor="middle" x="179.5" y="-159.5" font-family="Helvetica,sans-Serif" font-size="10.00">spider::GridLayout</text>
</a>
</g>
</g>
<!-- Node1&#45;&gt;Node7 -->
<g id="edge6" class="edge"><title>Node1&#45;&gt;Node7</title>
<path fill="none" stroke="midnightblue" d="M88.1286,-174.398C102.106,-172.48 117.353,-170.388 131.274,-168.479"/>
<polygon fill="midnightblue" stroke="midnightblue" points="87.6439,-170.931 78.2124,-175.758 88.5953,-177.866 87.6439,-170.931"/>
</g>
<!-- Node8 -->
<g id="node8" class="node"><title>Node8</title>
<g id="a_node8"><a xlink:href="classspider_1_1_linear_layout.html" target="_top" xlink:title="Linear Layout for drawing a graph. The layout plots the vertices along a straight line at equal dista...">
<polygon fill="white" stroke="black" points="127.5,-114.5 127.5,-133.5 231.5,-133.5 231.5,-114.5 127.5,-114.5"/>
<text text-anchor="middle" x="179.5" y="-121.5" font-family="Helvetica,sans-Serif" font-size="10.00">spider::LinearLayout</text>
</a>
</g>
</g>
<!-- Node1&#45;&gt;Node8 -->
<g id="edge7" class="edge"><title>Node1&#45;&gt;Node8</title>
<path fill="none" stroke="midnightblue" d="M65.3654,-166.471C79.4006,-158.819 97.3303,-149.667 114,-143 122.78,-139.489 132.461,-136.297 141.594,-133.575"/>
<polygon fill="midnightblue" stroke="midnightblue" points="63.3817,-163.569 56.3343,-171.48 66.7769,-169.691 63.3817,-163.569"/>
</g>
<!-- Node9 -->
<g id="node9" class="node"><title>Node9</title>
<g id="a_node9"><a xlink:href="classspider_1_1_n_circular_layout.html" target="_top" xlink:title="NCircular Layout for drawing a graph &#45; The layout has N number of concentric circles on whose circumf...">
<polygon fill="white" stroke="black" points="120,-76.5 120,-95.5 239,-95.5 239,-76.5 120,-76.5"/>
<text text-anchor="middle" x="179.5" y="-83.5" font-family="Helvetica,sans-Serif" font-size="10.00">spider::NCircularLayout</text>
</a>
</g>
</g>
<!-- Node1&#45;&gt;Node9 -->
<g id="edge8" class="edge"><title>Node1&#45;&gt;Node9</title>
<path fill="none" stroke="midnightblue" d="M52.9598,-163.126C66.3829,-145.854 88.8863,-120.143 114,-105 120.398,-101.142 127.628,-98.0257 134.875,-95.5212"/>
<polygon fill="midnightblue" stroke="midnightblue" points="50.0306,-161.197 46.8023,-171.288 55.6188,-165.413 50.0306,-161.197"/>
</g>
<!-- Node10 -->
<g id="node10" class="node"><title>Node10</title>
<g id="a_node10"><a xlink:href="classspider_1_1_random_layout.html" target="_top" xlink:title="Random Layout for drawing a graph &#45; This layout plots the vertices randomly. ">
<polygon fill="white" stroke="black" points="122,-38.5 122,-57.5 237,-57.5 237,-38.5 122,-38.5"/>
<text text-anchor="middle" x="179.5" y="-45.5" font-family="Helvetica,sans-Serif" font-size="10.00">spider::RandomLayout</text>
</a>
</g>
</g>
<!-- Node1&#45;&gt;Node10 -->
<g id="edge9" class="edge"><title>Node1&#45;&gt;Node10</title>
<path fill="none" stroke="midnightblue" d="M47.2887,-162.118C58.0479,-136.734 80.5839,-91.9189 114,-67 119.241,-63.092 125.275,-59.9846 131.505,-57.5145"/>
<polygon fill="midnightblue" stroke="midnightblue" points="44.0386,-160.819 43.5146,-171.401 50.5232,-163.456 44.0386,-160.819"/>
</g>
<!-- Node11 -->
<g id="node11" class="node"><title>Node11</title>
<g id="a_node11"><a xlink:href="classspider_1_1_tree_layout.html" target="_top" xlink:title="Tree Layout for drawing a graph. The layout starts at the root and plots the adjacent vertices in the...">
<polygon fill="white" stroke="black" points="130.5,-0.5 130.5,-19.5 228.5,-19.5 228.5,-0.5 130.5,-0.5"/>
<text text-anchor="middle" x="179.5" y="-7.5" font-family="Helvetica,sans-Serif" font-size="10.00">spider::TreeLayout</text>
</a>
</g>
</g>
<!-- Node1&#45;&gt;Node11 -->
<g id="edge10" class="edge"><title>Node1&#45;&gt;Node11</title>
<path fill="none" stroke="midnightblue" d="M44.2159,-161.062C52.1288,-128.564 72.3064,-64.268 114,-29 118.813,-24.9289 124.465,-21.7299 130.389,-19.2162"/>
<polygon fill="midnightblue" stroke="midnightblue" points="40.7306,-160.602 41.9133,-171.131 47.5545,-162.163 40.7306,-160.602"/>
</g>
</g>
</svg>
