<?xml version="1.0" encoding="UTF-8" standalone="no"?>
<!DOCTYPE svg PUBLIC "-//W3C//DTD SVG 1.1//EN"
 "http://www.w3.org/Graphics/SVG/1.1/DTD/svg11.dtd">
<!-- Generated by graphviz version 2.38.0 (20140413.2041)
 -->
<!-- Title: Graphical Class Hierarchy Pages: 1 -->
<svg width="210pt" height="104pt"
 viewBox="0.00 0.00 210.00 104.00" xmlns="http://www.w3.org/2000/svg" xmlns:xlink="http://www.w3.org/1999/xlink">
<g id="graph0" class="graph" transform="scale(1 1) rotate(0) translate(4 100)">
<title>Graphical Class Hierarchy</title>
<polygon fill="white" stroke="none" points="-4,4 -4,-100 206,-100 206,4 -4,4"/>
<!-- Node1 -->
<g id="node1" class="node"><title>Node1</title>
<polygon fill="white" stroke="#bfbfbf" points="0,-38.5 0,-57.5 55,-57.5 55,-38.5 0,-38.5"/>
<text text-anchor="middle" x="27.5" y="-45.5" font-family="Helvetica,sans-Serif" font-size="10.00">QWidget</text>
</g>
<!-- Node2 -->
<g id="node2" class="node"><title>Node2</title>
<g id="a_node2"><a xlink:href="class_output_pane.html" target="_top" xlink:title="OutputPane">
<polygon fill="white" stroke="black" points="112.5,-76.5 112.5,-95.5 180.5,-95.5 180.5,-76.5 112.5,-76.5"/>
<text text-anchor="middle" x="146.5" y="-83.5" font-family="Helvetica,sans-Serif" font-size="10.00">OutputPane</text>
</a>
</g>
</g>
<!-- Node1&#45;&gt;Node2 -->
<g id="edge1" class="edge"><title>Node1&#45;&gt;Node2</title>
<path fill="none" stroke="midnightblue" d="M64.9056,-59.824C81.3981,-65.1806 100.637,-71.4292 116.181,-76.4777"/>
<polygon fill="midnightblue" stroke="midnightblue" points="65.6412,-56.383 55.0491,-56.6228 63.4789,-63.0407 65.6412,-56.383"/>
</g>
<!-- Node3 -->
<g id="node3" class="node"><title>Node3</title>
<g id="a_node3"><a xlink:href="classspider_1_1_editor_wrapper.html" target="_top" xlink:title="Class to display the different components of Code Editor. The different components consists of the co...">
<polygon fill="white" stroke="black" points="91,-38.5 91,-57.5 202,-57.5 202,-38.5 91,-38.5"/>
<text text-anchor="middle" x="146.5" y="-45.5" font-family="Helvetica,sans-Serif" font-size="10.00">spider::EditorWrapper</text>
</a>
</g>
</g>
<!-- Node1&#45;&gt;Node3 -->
<g id="edge2" class="edge"><title>Node1&#45;&gt;Node3</title>
<path fill="none" stroke="midnightblue" d="M65.2899,-48C73.414,-48 82.1891,-48 90.851,-48"/>
<polygon fill="midnightblue" stroke="midnightblue" points="65.0491,-44.5001 55.0491,-48 65.0491,-51.5001 65.0491,-44.5001"/>
</g>
<!-- Node4 -->
<g id="node4" class="node"><title>Node4</title>
<g id="a_node4"><a xlink:href="classspider_1_1_window_u_i.html" target="_top" xlink:title="Class to control and display the different components of visualization window. ">
<polygon fill="white" stroke="black" points="99,-0.5 99,-19.5 194,-19.5 194,-0.5 99,-0.5"/>
<text text-anchor="middle" x="146.5" y="-7.5" font-family="Helvetica,sans-Serif" font-size="10.00">spider::WindowUI</text>
</a>
</g>
</g>
<!-- Node1&#45;&gt;Node4 -->
<g id="edge3" class="edge"><title>Node1&#45;&gt;Node4</title>
<path fill="none" stroke="midnightblue" d="M64.9056,-36.176C81.3981,-30.8194 100.637,-24.5708 116.181,-19.5223"/>
<polygon fill="midnightblue" stroke="midnightblue" points="63.4789,-32.9593 55.0491,-39.3772 65.6412,-39.617 63.4789,-32.9593"/>
</g>
</g>
</svg>
