<?xml version="1.0" encoding="UTF-8" standalone="no"?>
<!DOCTYPE svg PUBLIC "-//W3C//DTD SVG 1.1//EN"
 "http://www.w3.org/Graphics/SVG/1.1/DTD/svg11.dtd">
<!-- Generated by graphviz version 2.38.0 (20140413.2041)
 -->
<!-- Title: Graphical Class Hierarchy Pages: 1 -->
<svg width="495pt" height="408pt"
 viewBox="0.00 0.00 495.00 408.00" xmlns="http://www.w3.org/2000/svg" xmlns:xlink="http://www.w3.org/1999/xlink">
<g id="graph0" class="graph" transform="scale(1 1) rotate(0) translate(4 404)">
<title>Graphical Class Hierarchy</title>
<polygon fill="white" stroke="none" points="-4,4 -4,-404 491,-404 491,4 -4,4"/>
<!-- Node1 -->
<g id="node1" class="node"><title>Node1</title>
<polygon fill="white" stroke="#bfbfbf" points="0,-190.5 0,-209.5 53,-209.5 53,-190.5 0,-190.5"/>
<text text-anchor="middle" x="26.5" y="-197.5" font-family="Helvetica,sans-Serif" font-size="10.00">QObject</text>
</g>
<!-- Node2 -->
<g id="node2" class="node"><title>Node2</title>
<g id="a_node2"><a xlink:href="classspider_1_1_value.html" target="_top" xlink:title="Value contains the different datatypes that will be supported by the language. It maps the names of t...">
<polygon fill="white" stroke="black" points="89,-190.5 89,-209.5 163,-209.5 163,-190.5 89,-190.5"/>
<text text-anchor="middle" x="126" y="-197.5" font-family="Helvetica,sans-Serif" font-size="10.00">spider::Value</text>
</a>
</g>
</g>
<!-- Node1&#45;&gt;Node2 -->
<g id="edge1" class="edge"><title>Node1&#45;&gt;Node2</title>
<path fill="none" stroke="midnightblue" d="M63.3197,-200C71.669,-200 80.5637,-200 88.924,-200"/>
<polygon fill="midnightblue" stroke="midnightblue" points="63.117,-196.5 53.117,-200 63.1169,-203.5 63.117,-196.5"/>
</g>
<!-- Node3 -->
<g id="node3" class="node"><title>Node3</title>
<g id="a_node3"><a xlink:href="classspider_1_1_bool_value.html" target="_top" xlink:title="BoolValue returns the value of an integer declared using the Boolean datatype supported by the langua...">
<polygon fill="white" stroke="black" points="208,-380.5 208,-399.5 301,-399.5 301,-380.5 208,-380.5"/>
<text text-anchor="middle" x="254.5" y="-387.5" font-family="Helvetica,sans-Serif" font-size="10.00">spider::BoolValue</text>
</a>
</g>
</g>
<!-- Node2&#45;&gt;Node3 -->
<g id="edge2" class="edge"><title>Node2&#45;&gt;Node3</title>
<path fill="none" stroke="midnightblue" d="M129.953,-219.665C136.258,-254.899 154.288,-329.023 199,-371 203.164,-374.909 208.176,-378.02 213.451,-380.493"/>
<polygon fill="midnightblue" stroke="midnightblue" points="133.386,-218.975 128.299,-209.681 126.48,-220.119 133.386,-218.975"/>
</g>
<!-- Node4 -->
<g id="node4" class="node"><title>Node4</title>
<g id="a_node4"><a xlink:href="classspider_1_1_dict_value.html" target="_top" xlink:title="spider::DictValue">
<polygon fill="white" stroke="black" points="208.5,-342.5 208.5,-361.5 300.5,-361.5 300.5,-342.5 208.5,-342.5"/>
<text text-anchor="middle" x="254.5" y="-349.5" font-family="Helvetica,sans-Serif" font-size="10.00">spider::DictValue</text>
</a>
</g>
</g>
<!-- Node2&#45;&gt;Node4 -->
<g id="edge3" class="edge"><title>Node2&#45;&gt;Node4</title>
<path fill="none" stroke="midnightblue" d="M132.481,-219.257C141.62,-248.006 162.65,-302.069 199,-333 203.579,-336.896 209.005,-340.01 214.63,-342.494"/>
<polygon fill="midnightblue" stroke="midnightblue" points="135.799,-218.137 129.553,-209.579 129.099,-220.164 135.799,-218.137"/>
</g>
<!-- Node5 -->
<g id="node5" class="node"><title>Node5</title>
<g id="a_node5"><a xlink:href="classspider_1_1_float_value.html" target="_top" xlink:title="FloatValue returns the value of an integer declared using the Float datatype supported by the languag...">
<polygon fill="white" stroke="black" points="207,-304.5 207,-323.5 302,-323.5 302,-304.5 207,-304.5"/>
<text text-anchor="middle" x="254.5" y="-311.5" font-family="Helvetica,sans-Serif" font-size="10.00">spider::FloatValue</text>
</a>
</g>
</g>
<!-- Node2&#45;&gt;Node5 -->
<g id="edge4" class="edge"><title>Node2&#45;&gt;Node5</title>
<path fill="none" stroke="midnightblue" d="M136.635,-218.58C148.572,-239.887 170.827,-274.508 199,-295 204.267,-298.831 210.373,-301.942 216.552,-304.451"/>
<polygon fill="midnightblue" stroke="midnightblue" points="139.595,-216.696 131.757,-209.568 133.439,-220.028 139.595,-216.696"/>
</g>
<!-- Node6 -->
<g id="node6" class="node"><title>Node6</title>
<g id="a_node6"><a xlink:href="classspider_1_1_function_value.html" target="_top" xlink:title="spider::FunctionValue">
<polygon fill="white" stroke="black" points="199,-266.5 199,-285.5 310,-285.5 310,-266.5 199,-266.5"/>
<text text-anchor="middle" x="254.5" y="-273.5" font-family="Helvetica,sans-Serif" font-size="10.00">spider::FunctionValue</text>
</a>
</g>
</g>
<!-- Node2&#45;&gt;Node6 -->
<g id="edge5" class="edge"><title>Node2&#45;&gt;Node6</title>
<path fill="none" stroke="midnightblue" d="M144.314,-216.459C158.205,-228.953 178.678,-245.831 199,-257 205.674,-260.668 213.188,-263.833 220.456,-266.47"/>
<polygon fill="midnightblue" stroke="midnightblue" points="146.677,-213.877 136.946,-209.685 141.939,-219.03 146.677,-213.877"/>
</g>
<!-- Node9 -->
<g id="node9" class="node"><title>Node9</title>
<g id="a_node9"><a xlink:href="classspider_1_1_graph_value.html" target="_top" xlink:title="wrapper class for Graph (graph::AdjacencyList&lt;int,int&gt;) ">
<polygon fill="white" stroke="black" points="204.5,-228.5 204.5,-247.5 304.5,-247.5 304.5,-228.5 204.5,-228.5"/>
<text text-anchor="middle" x="254.5" y="-235.5" font-family="Helvetica,sans-Serif" font-size="10.00">spider::GraphValue</text>
</a>
</g>
</g>
<!-- Node2&#45;&gt;Node9 -->
<g id="edge8" class="edge"><title>Node2&#45;&gt;Node9</title>
<path fill="none" stroke="midnightblue" d="M168.729,-212.535C185.938,-217.705 205.56,-223.599 221.589,-228.414"/>
<polygon fill="midnightblue" stroke="midnightblue" points="169.505,-209.114 158.921,-209.589 167.492,-215.818 169.505,-209.114"/>
</g>
<!-- Node10 -->
<g id="node10" class="node"><title>Node10</title>
<g id="a_node10"><a xlink:href="classspider_1_1_integer_value.html" target="_top" xlink:title="IntegerValue returns the value of an integer declared using the Integer datatype supported by the lan...">
<polygon fill="white" stroke="black" points="202.5,-190.5 202.5,-209.5 306.5,-209.5 306.5,-190.5 202.5,-190.5"/>
<text text-anchor="middle" x="254.5" y="-197.5" font-family="Helvetica,sans-Serif" font-size="10.00">spider::IntegerValue</text>
</a>
</g>
</g>
<!-- Node2&#45;&gt;Node10 -->
<g id="edge9" class="edge"><title>Node2&#45;&gt;Node10</title>
<path fill="none" stroke="midnightblue" d="M173.509,-200C182.835,-200 192.684,-200 202.163,-200"/>
<polygon fill="midnightblue" stroke="midnightblue" points="173.25,-196.5 163.25,-200 173.25,-203.5 173.25,-196.5"/>
</g>
<!-- Node11 -->
<g id="node11" class="node"><title>Node11</title>
<g id="a_node11"><a xlink:href="classspider_1_1_list_value.html" target="_top" xlink:title="spider::ListValue">
<polygon fill="white" stroke="black" points="210,-152.5 210,-171.5 299,-171.5 299,-152.5 210,-152.5"/>
<text text-anchor="middle" x="254.5" y="-159.5" font-family="Helvetica,sans-Serif" font-size="10.00">spider::ListValue</text>
</a>
</g>
</g>
<!-- Node2&#45;&gt;Node11 -->
<g id="edge10" class="edge"><title>Node2&#45;&gt;Node11</title>
<path fill="none" stroke="midnightblue" d="M168.729,-187.465C185.938,-182.295 205.56,-176.401 221.589,-171.586"/>
<polygon fill="midnightblue" stroke="midnightblue" points="167.492,-184.182 158.921,-190.411 169.505,-190.886 167.492,-184.182"/>
</g>
<!-- Node12 -->
<g id="node12" class="node"><title>Node12</title>
<g id="a_node12"><a xlink:href="classspider_1_1_string_value.html" target="_top" xlink:title="StringValue returns the value of an integer declared using the String datatype supported by the langu...">
<polygon fill="white" stroke="black" points="205,-114.5 205,-133.5 304,-133.5 304,-114.5 205,-114.5"/>
<text text-anchor="middle" x="254.5" y="-121.5" font-family="Helvetica,sans-Serif" font-size="10.00">spider::StringValue</text>
</a>
</g>
</g>
<!-- Node2&#45;&gt;Node12 -->
<g id="edge11" class="edge"><title>Node2&#45;&gt;Node12</title>
<path fill="none" stroke="midnightblue" d="M144.314,-183.541C158.205,-171.047 178.678,-154.169 199,-143 205.674,-139.332 213.188,-136.167 220.456,-133.53"/>
<polygon fill="midnightblue" stroke="midnightblue" points="141.939,-180.97 136.946,-190.315 146.677,-186.123 141.939,-180.97"/>
</g>
<!-- Node13 -->
<g id="node13" class="node"><title>Node13</title>
<g id="a_node13"><a xlink:href="classspider_1_1_vattr_value.html" target="_top" xlink:title="spider::VattrValue">
<polygon fill="white" stroke="black" points="207,-76.5 207,-95.5 302,-95.5 302,-76.5 207,-76.5"/>
<text text-anchor="middle" x="254.5" y="-83.5" font-family="Helvetica,sans-Serif" font-size="10.00">spider::VattrValue</text>
</a>
</g>
</g>
<!-- Node2&#45;&gt;Node13 -->
<g id="edge12" class="edge"><title>Node2&#45;&gt;Node13</title>
<path fill="none" stroke="midnightblue" d="M136.635,-181.42C148.572,-160.113 170.827,-125.492 199,-105 204.267,-101.169 210.373,-98.0582 216.552,-95.5494"/>
<polygon fill="midnightblue" stroke="midnightblue" points="133.439,-179.972 131.757,-190.432 139.595,-183.304 133.439,-179.972"/>
</g>
<!-- Node14 -->
<g id="node14" class="node"><title>Node14</title>
<g id="a_node14"><a xlink:href="classspider_1_1_void_value.html" target="_top" xlink:title="VoidValue returns nothing. It is a class declared to tackle all Void variables declared using the Voi...">
<polygon fill="white" stroke="black" points="208,-38.5 208,-57.5 301,-57.5 301,-38.5 208,-38.5"/>
<text text-anchor="middle" x="254.5" y="-45.5" font-family="Helvetica,sans-Serif" font-size="10.00">spider::VoidValue</text>
</a>
</g>
</g>
<!-- Node2&#45;&gt;Node14 -->
<g id="edge13" class="edge"><title>Node2&#45;&gt;Node14</title>
<path fill="none" stroke="midnightblue" d="M132.481,-180.743C141.62,-151.994 162.65,-97.9309 199,-67 203.579,-63.1038 209.005,-59.9902 214.63,-57.5064"/>
<polygon fill="midnightblue" stroke="midnightblue" points="129.099,-179.836 129.553,-190.421 135.799,-181.863 129.099,-179.836"/>
</g>
<!-- Node15 -->
<g id="node15" class="node"><title>Node15</title>
<g id="a_node15"><a xlink:href="classspider_1_1_window_value.html" target="_top" xlink:title="spider::WindowValue">
<polygon fill="white" stroke="black" points="200,-0.5 200,-19.5 309,-19.5 309,-0.5 200,-0.5"/>
<text text-anchor="middle" x="254.5" y="-7.5" font-family="Helvetica,sans-Serif" font-size="10.00">spider::WindowValue</text>
</a>
</g>
</g>
<!-- Node2&#45;&gt;Node15 -->
<g id="edge14" class="edge"><title>Node2&#45;&gt;Node15</title>
<path fill="none" stroke="midnightblue" d="M129.953,-180.335C136.258,-145.101 154.288,-70.9775 199,-29 203.164,-25.0907 208.176,-21.9803 213.451,-19.5068"/>
<polygon fill="midnightblue" stroke="midnightblue" points="126.48,-179.881 128.299,-190.319 133.386,-181.025 126.48,-179.881"/>
</g>
<!-- Node7 -->
<g id="node7" class="node"><title>Node7</title>
<g id="a_node7"><a xlink:href="classspider_1_1_inbuilt_function.html" target="_top" xlink:title="spider::InbuiltFunction">
<polygon fill="white" stroke="black" points="360,-285.5 360,-304.5 473,-304.5 473,-285.5 360,-285.5"/>
<text text-anchor="middle" x="416.5" y="-292.5" font-family="Helvetica,sans-Serif" font-size="10.00">spider::InbuiltFunction</text>
</a>
</g>
</g>
<!-- Node6&#45;&gt;Node7 -->
<g id="edge6" class="edge"><title>Node6&#45;&gt;Node7</title>
<path fill="none" stroke="midnightblue" d="M320.43,-283.71C333.474,-285.259 347.073,-286.874 359.771,-288.382"/>
<polygon fill="midnightblue" stroke="midnightblue" points="320.458,-280.189 310.115,-282.486 319.633,-287.14 320.458,-280.189"/>
</g>
<!-- Node8 -->
<g id="node8" class="node"><title>Node8</title>
<g id="a_node8"><a xlink:href="classspider_1_1_user_defined_function.html" target="_top" xlink:title="spider::UserDefinedFunction">
<polygon fill="white" stroke="black" points="346,-247.5 346,-266.5 487,-266.5 487,-247.5 346,-247.5"/>
<text text-anchor="middle" x="416.5" y="-254.5" font-family="Helvetica,sans-Serif" font-size="10.00">spider::UserDefinedFunction</text>
</a>
</g>
</g>
<!-- Node6&#45;&gt;Node8 -->
<g id="edge7" class="edge"><title>Node6&#45;&gt;Node8</title>
<path fill="none" stroke="midnightblue" d="M320.255,-268.31C328.684,-267.309 337.348,-266.281 345.853,-265.271"/>
<polygon fill="midnightblue" stroke="midnightblue" points="319.633,-264.86 310.115,-269.514 320.458,-271.811 319.633,-264.86"/>
</g>
</g>
</svg>
