<?xml version="1.0" encoding="UTF-8" standalone="no"?>
<!DOCTYPE svg PUBLIC "-//W3C//DTD SVG 1.1//EN"
 "http://www.w3.org/Graphics/SVG/1.1/DTD/svg11.dtd">
<!-- Generated by graphviz version 2.38.0 (20140413.2041)
 -->
<!-- Title: spider::Rect Pages: 1 -->
<svg width="78pt" height="237pt"
 viewBox="0.00 0.00 78.00 237.00" xmlns="http://www.w3.org/2000/svg" xmlns:xlink="http://www.w3.org/1999/xlink">
<g id="graph0" class="graph" transform="scale(1 1) rotate(0) translate(4 233)">
<title>spider::Rect</title>
<polygon fill="white" stroke="none" points="-4,4 -4,-233 74,-233 74,4 -4,4"/>
<!-- Node1 -->
<g id="node1" class="node"><title>Node1</title>
<polygon fill="#bfbfbf" stroke="black" points="0,-0.5 0,-90.5 70,-90.5 70,-0.5 0,-0.5"/>
<text text-anchor="middle" x="35" y="-78.5" font-family="Helvetica,sans-Serif" font-size="10.00">spider::Rect</text>
<polyline fill="none" stroke="black" points="0,-71.5 70,-71.5 "/>
<text text-anchor="middle" x="35" y="-59.5" font-family="Helvetica,sans-Serif" font-size="10.00"> </text>
<polyline fill="none" stroke="black" points="0,-52.5 70,-52.5 "/>
<text text-anchor="start" x="8" y="-40.5" font-family="Helvetica,sans-Serif" font-size="10.00">+ Rect()</text>
<text text-anchor="start" x="8" y="-29.5" font-family="Helvetica,sans-Serif" font-size="10.00">+ Rect()</text>
<text text-anchor="start" x="8" y="-18.5" font-family="Helvetica,sans-Serif" font-size="10.00">+ Rect()</text>
<text text-anchor="start" x="8" y="-7.5" font-family="Helvetica,sans-Serif" font-size="10.00">+ within()</text>
</g>
<!-- Node2 -->
<g id="node2" class="node"><title>Node2</title>
<g id="a_node2"><a xlink:href="structspider_1_1vec2.html" target="_top" xlink:title="structure to define a point with x and y cordinates ">
<polygon fill="white" stroke="black" points="0,-149.5 0,-228.5 70,-228.5 70,-149.5 0,-149.5"/>
<text text-anchor="middle" x="35" y="-216.5" font-family="Helvetica,sans-Serif" font-size="10.00">spider::vec2</text>
<polyline fill="none" stroke="black" points="0,-209.5 70,-209.5 "/>
<text text-anchor="start" x="8" y="-197.5" font-family="Helvetica,sans-Serif" font-size="10.00">+ x</text>
<text text-anchor="start" x="8" y="-186.5" font-family="Helvetica,sans-Serif" font-size="10.00">+ y</text>
<polyline fill="none" stroke="black" points="0,-179.5 70,-179.5 "/>
<text text-anchor="start" x="8" y="-167.5" font-family="Helvetica,sans-Serif" font-size="10.00">+ vec2()</text>
<text text-anchor="start" x="8" y="-156.5" font-family="Helvetica,sans-Serif" font-size="10.00">+ vec2()</text>
</a>
</g>
</g>
<!-- Node2&#45;&gt;Node1 -->
<g id="edge1" class="edge"><title>Node2&#45;&gt;Node1</title>
<path fill="none" stroke="#404040" d="M35,-149.335C35,-135.001 35,-118.438 35,-102.849"/>
<polygon fill="none" stroke="#404040" points="35.0001,-102.617 31,-96.6168 35,-90.6168 39,-96.6168 35.0001,-102.617"/>
<text text-anchor="middle" x="47.5" y="-123" font-family="Helvetica,sans-Serif" font-size="10.00"> +min</text>
<text text-anchor="middle" x="47.5" y="-112" font-family="Helvetica,sans-Serif" font-size="10.00">+max</text>
</g>
</g>
</svg>
